<?xml version="1.0" encoding="UTF-8"?>
<!-- Created with Inkscape (http://www.inkscape.org/) -->
<svg width="26.284mm" height="53.007mm" version="1.1" viewBox="0 0 26.284 53.007" xmlns="http://www.w3.org/2000/svg">
 <g transform="translate(-594.25 -551.92)">
  <g transform="translate(535.17 105.63)">
   <g transform="translate(-24.462 235.74)">
    <g transform="translate(39.875 -83.459)">
     <g transform="translate(-18.044 92.985)">
      <g transform="translate(-9.1228 25.812)">
       <g transform="translate(95.563 127)">
        <path d="m-19.803 48.206 4.8006 1.6402 8.3611 8.4411-0.56008 1.8803-1.0401 7.681 3.5205 8.3611 5.3207 3.2004 0.96013 3.1604-2.5203 3.9605-1.8002 6.0408-4.6806 2.7604 1.8402 2.4803-2.8404 3.4005-2.4803-0.60008-1.5202-4.6006-7.321-4.7606 0.12002-4.0805-2.4403-3.1204 1.3478-7.0795 0.08486-3.932 0.50918-8.6562-2.942-1.867-1.6407-5.1484z" stroke-width=".26458"/>
       </g>
      </g>
     </g>
    </g>
   </g>
  </g>
 </g>
</svg>
