<?xml version="1.0" encoding="UTF-8"?>
<!-- Created with Inkscape (http://www.inkscape.org/) -->
<svg width="90.412mm" height="46.288mm" version="1.1" viewBox="0 0 90.412 46.288" xmlns="http://www.w3.org/2000/svg">
 <g transform="translate(-532.08 -501.39)">
  <g transform="translate(535.17 105.63)">
   <g transform="translate(-24.462 235.74)">
    <g transform="translate(39.875 -83.459)">
     <g transform="translate(-18.044 92.985)">
      <g transform="translate(-9.1228 25.812)">
       <g transform="translate(95.563 127)">
        <g transform="translate(-193.85 -75.087)">
         <g transform="translate(107.33 33.258)">
          <g transform="translate(149.52 99.988)">
           <path d="m-85.892-60.488 1.6402 0.28004 0.40006 1.2802 1.0401-0.24003 0.40006-0.7601 4.8407 2.4403 1.2802-0.68009 3.2404 2.2803h3.7205l0.96013-1.3602 4.5606 1.2002 0.48006 1.6402-0.68009 5.0407 3.2804 3.6405 1.2402 7.8011-5.0407-0.08001-0.08001 3.3605-2.9604 1.8002 1.5602 5.2407-0.7201 2.0803-4.3206 2.7204-1.3679 1.0212 0.62234 2.263-5.0353-0.62234-1.5276 1.6973-6.28-0.50918-2.4328 2.7157-2.6591 2.0367-5.6576-1.471-4.4695-0.39603-4.4129-1.4144-8.2035-1.1881-4.2623-1.2526-1.7602-6.4009-5.5207 2.0803-6.0808-0.08001-2.6404 3.3605-6.6409-1.1202 0.32004-2.0003-1.6462-1.4326-2.6144 2.5328-3.2404-1.4402 0.18003-1.5802-2.5404-0.66009-0.90012-4.5806 1.0401-1.1202-1.1202-2.0403 2.2803-0.56008 2.4003 1.4002 1.2402 2.5603 1.7602 1.1602 2.6804-5.5608 5.6008 2.5603 0.52007 1.4002 8.0011-3.6805 6.8409-0.16002 0.28004-2.2803 3.7205 2.0003 2.7204-0.92012 0.7601 2.8004 2.6404 1.4802 0.6801-4.8407-2.3603-0.16002 1.3202-2.5203-2.6804-4.3206 3.6805-2.9604 3.6005-1.2402 0.52007-4.0805 3.2404 1.2402 1.4802-2.4003-0.36027-2.3535 2.1782 1.2022 0.1273 1.6973 3.8472 0.67891 1.1315-1.6973 3.0975 1.2447 0.41018-2.3055 0.74963-1.4144 2.0792 0.22631-0.41018-3.1824z" stroke-width=".26458"/>
          </g>
         </g>
        </g>
       </g>
      </g>
     </g>
    </g>
   </g>
  </g>
 </g>
</svg>
