<?xml version="1.0" encoding="UTF-8"?>
<!-- Created with Inkscape (http://www.inkscape.org/) -->
<svg width="98.216mm" height="87.919mm" version="1.1" viewBox="0 0 98.216 87.919" xmlns="http://www.w3.org/2000/svg">
 <g transform="translate(-424.66 -547.42)">
  <g transform="translate(535.17 105.63)">
   <g transform="translate(-24.462 235.74)">
    <g transform="translate(39.875 -83.459)">
     <g transform="translate(-18.044 92.985)">
      <g transform="translate(-9.1228 25.812)">
       <g transform="translate(95.563 127)">
        <g transform="translate(-193.85 -75.087)">
         <g transform="translate(107.33 33.258)">
          <g transform="translate(149.52 99.988)">
           <g transform="translate(3.0289 161.85)">
            <g transform="translate(-83.884 -112.27)">
             <g transform="translate(-64.04 128.68)">
              <g transform="translate(-6.2365 -30.632)">
               <g transform="translate(188.06 114.29)">
                <g transform="translate(-61.317 -37.807)">
                 <g transform="translate(-317.28 -6.2643)">
                  <g transform="translate(85.477 -28.96)">
                   <path d="m-1.1315-156.66 8.3733 19.179-0.2263 3.6209-4.5261 2.7157-2.6025 5.4313 6.1102 0.90522 1.471 9.1653 3.5077 0.2263 3.5077-6.7891 8.939-3.0551 21.386 1.3578 22.178-3.2814 13.465-0.33946 2.3762 2.0367-2.4894-4.8656 3.1683-9.8442 9.5048-2.4894-5.6576-10.976-3.2814-3.3946 3.8472-2.7157 5.5445 0.22631 3.6209-6.1102-4.2998-6.4497-6.9023 0.67891-11.315-12.22-6.676-16.068-8.5996-3.1683-6.1102 3.6209-14.71-4.0735-4.2998 5.4313v1.6973l-5.9971 0.45261-2.942 3.9603 0.45261 7.2418 2.8288-0.90522-4.6392 3.6209-3.9603 4.6392-0.11315 10.976 2.8288 1.5841-2.4894 1.6973-0.56576-2.4894-3.2814 1.2447-4.1866 6.3365z" stroke-width=".26458"/>
                  </g>
                 </g>
                </g>
               </g>
              </g>
             </g>
            </g>
           </g>
          </g>
         </g>
        </g>
       </g>
      </g>
     </g>
    </g>
   </g>
  </g>
 </g>
</svg>
