<?xml version="1.0" encoding="UTF-8"?>
<!-- Created with Inkscape (http://www.inkscape.org/) -->
<svg width="50.647mm" height="46.648mm" version="1.1" viewBox="0 0 50.647 46.648" xmlns="http://www.w3.org/2000/svg">
 <g transform="translate(-515.14 -552.19)">
  <g transform="translate(535.17 105.63)">
   <g transform="translate(-24.462 235.74)">
    <g transform="translate(39.875 -83.459)">
     <g transform="translate(-18.044 92.985)">
      <g transform="translate(-9.1228 25.812)">
       <g transform="translate(64.618 170.83)">
        <path d="m-72.09 6.8009-0.80011 7.761 4.2406 3.2804 4.6406 8.9612 11.762 9.5213 5.6408 8.6812-1.7202 0.88012 1.2002 1.0001 2.2403-1.2802 6.0408 5.4807 3.0804 0.20003-0.7201-7.401 6.8409-5.5608-0.28004-3.9205 5.9608-2.1203-2.6003-6.6009 4.3206-1.3602-7.721-4.7606 2.0803-9.6013-3.318-0.65456-2.7722 1.4427-3.1966-4.0169-8.8825-0.39603-10.41 0.90522-3.6209-2.6025-4.7524 2.0367-1.8104 3.6209-4.1866-3.734z" stroke-width=".26458"/>
       </g>
      </g>
     </g>
    </g>
   </g>
  </g>
 </g>
</svg>
