<?xml version="1.0" encoding="UTF-8"?>
<!-- Created with Inkscape (http://www.inkscape.org/) -->
<svg width="95.009mm" height="202.32mm" version="1.1" viewBox="0 0 95.009 202.32" xmlns="http://www.w3.org/2000/svg">
 <g transform="translate(-228.6 -71.173)">
  <g transform="translate(535.17 105.63)">
   <g transform="translate(-24.462 235.74)">
    <g transform="translate(43.093 12.397)" stroke-width=".26458">
     <path d="m-258.21-248.48-2.6025 5.8839-11.315 5.8839 4.1866 0.90522-4.9787 2.4894 20.481 3.9603 1.6973 3.734-18.67 16.068 6.3365 2.7156-7.0154 2.8288-5.6576-1.6973 6.2234 3.8472 8.5996 2.7156 4.0735 7.2418 1.0184 17.991 9.7311 9.9574 1.2447 9.2785-9.5048-3.2814 8.147 5.7708 1.9236 6.3365-4.6392 4.5261 3.734 2.6025 7.4681-2.4894 6.5628 8.0338-5.6576 11.542-7.5812 1.3578-3.932 4.2715 10.353 3.0268-0.76378 4.6958-4.2998 0.56576-4.6958 2.1499-5.2616 1.9802-4.9221-2.6591-7.0154 0.79207-5.4313-4.2998 3.2248 4.2998-3.1682 2.0933-2.4894-2.8288 2.8288-1.6407-7.8641-0.0566 0.9052 2.263-10.58-4.7524-6.2799 0.84864-1.8104 4.4129-2.7722 2.0367-4.3564-5.4879-8.4298 1.7539-9.5048 0.79206 12.673-7.4115 4.0169-6.1668 2.9985 0.45261 0.73549-2.5459 13.069 2.3196 9.1654-7.8641-9.7877 4.5827-7.5812-5.8273-12.73-4.9221 2.1499-5.6576 11.711-1.8104 2.3762-10.976-8.3733 1.1315 10.467-8.4864 11.428 3.5643 3.9603-15.558-4.0735 1.9236-2.8288-8.9956 8.6562-6.28-14.144-1.4144-0.28287 3.4511-8.147-5.9971 8.0338-8.8825 1.8104-8.4298-4.1888 0.75646-1.978 0.60137-4.2432 7.4115-2.9985-0.11315 5.601-13.409 9.0522-12.277-9.7877 8.147-6.2234-0.28289 3.6774-3.5077-1.8104-2.0933 9.0522-6.2234-3.6209-1.075-6.0536-8.939 6.4497-3.4512 0.39603 7.6944 3.8472 2.0367 0.84865-10.467 5.6576 0.28288-0.22629-6.1668 4.6392 0.90522-2.0933-2.8288 2.942-4.0735 5.8273 4.2432 8.7127-0.84864z"/>
     <path d="m-315.02-196.94 2.9985 0.9618 1.3012-2.3762 8.939 1.3012 1.5841 9.9574-3.5077 1.8104 4.3564-1.0184 0.84865 4.0735-3.5077 4.2432-5.3747 1.8104-2.6591-2.8854-2.1499 0.39603-1.9802-7.1852-5.1484 1.1315 0.96179 1.8104-3.6774-0.62234-3.1683-5.3747 4.9787-1.3578 0.2263-1.471 3.4512-0.45261z"/>
     <path d="m-285.54-81.979 2.9986 1.6973-0.28289-3.2814-3.2248-0.05658z"/>
     <path d="m-289.44-86.562 2.4328-0.39603-0.11316-2.4328-2.8854 1.1881z"/>
     <path d="m-293.4-171.22 5.7608-4.1606-1.0402-4.6406-5.7608 5.2807z"/>
     <path d="m-297.88-241.87 8.5612-4.6406 2.1603-7.521-9.6013 3.2004-2.0003 4.3206z"/>
     <path d="m-306.6-228.99 3.2804-3.3604 3.2004-10.161-4.0005 0.80011v3.3604l-2.0803 6.0808-2.5604 1.7602z"/>
     <path d="m-303.08-209.11-1.2447 4.5261 2.8288 1.3578 4.3564-2.7722 3.2814-5.4879z"/>
     <path d="m-260.25-250.97 1.1881-1.9236 4.9221 0.11315-4.6958-5.9405-1.867 4.9787z"/>
     <path d="m-238.27-265.8 3.3604-9.6013-1.3602-2.5604 2.3203 1.6002 3.7605-6.2409-8.8812 3.9205 2.1603 2.8804-3.6805 1.6802 3.1204 3.1204z"/>
    </g>
   </g>
  </g>
 </g>
</svg>
