<?xml version="1.0" encoding="UTF-8"?>
<!-- Created with Inkscape (http://www.inkscape.org/) -->
<svg width="80.086mm" height="57.725mm" version="1.1" viewBox="0 0 80.086 57.725" xmlns="http://www.w3.org/2000/svg">
 <g transform="translate(-613.57 -620.71)">
  <g transform="translate(535.17 105.63)">
   <g transform="translate(-24.462 235.74)">
    <g transform="translate(39.875 -83.459)">
     <g transform="translate(-18.044 92.985)">
      <g transform="translate(-9.1228 25.812)">
       <g transform="translate(95.563 127)">
        <g transform="translate(-193.85 -75.087)">
         <g transform="translate(107.33 33.258)">
          <g transform="translate(149.52 99.988)">
           <g transform="translate(3.0289 161.85)">
            <g transform="translate(-83.884 -112.27)">
             <path d="m15.282 17.022 0.50007 0.44006 4.4806 1.5202-2.3803 3.6405 1.0201 0.92012 8.1011-1.4002 9.3413 1.2402 9.7613-1.9203 5.3807 0.7601 5.5808-5.2607 2.8004-3.0204 9.6613-4.6206 6.0608 1.4202 6.3809-1.4802 2.8004 3.0804 6.6609-0.34005 1.1001 4.3606-1.2602 2.8604-1.7802-0.68009-3.3831 3.8617-0.79206 2.6025 1.1315 7.6944-2.0367 0.11315-1.0184 2.6591-1.7539 1.867 3.1683 0.62234 1.4144 2.942 4.1301 3.338-3.2814 1.0184-2.7157 1.3578-3.5077-2.2065-3.2814 0.62234-1.6973 2.2065-3.9038 0.79207-2.7722 4.2432-0.16973 1.5841-2.942-0.33946-0.11315 1.6973 2.0933 3.338-1.5276 1.9802-6.28 1.471-3.7906 2.2065-5.4879-2.4894-3.3946 0.45261-1.7539-2.5459-5.8273 3.0551-10.071 2.6025-3.7906 1.6973-1.3013-4.9221 1.1881-1.9236-3.2814-5.0919-6.6194-4.1301 1.5841-2.7157-1.6973-2.2065-0.05658-4.3564 3.5643-1.471 2.6025-5.4879-4.0735-3.734-2.942-1.4144-2.6591-5.2616 0.05658-2.9985 2.5459-1.5276z" stroke-width=".26458"/>
            </g>
           </g>
          </g>
         </g>
        </g>
       </g>
      </g>
     </g>
    </g>
   </g>
  </g>
 </g>
</svg>
