<?xml version="1.0" encoding="UTF-8"?>
<!-- Created with Inkscape (http://www.inkscape.org/) -->
<svg width="74.341mm" height="69.675mm" version="1.1" viewBox="0 0 74.341 69.675" xmlns="http://www.w3.org/2000/svg">
 <g transform="translate(-528.37 -475.72)">
  <g transform="translate(535.17 105.63)">
   <g transform="translate(-24.462 235.74)">
    <g transform="translate(39.875 -83.459)">
     <g transform="translate(-18.044 92.985)">
      <g transform="translate(-9.1228 25.812)">
       <g transform="translate(107.25 115.08)" stroke-width=".26458">
        <path d="m-102.29 2.1499 5.6576 1.1315 8.0338-4.0735 7.6944 4.0735 2.7157-1.2447-1.9236-4.6392 4.6392-1.8104 1.2447-6.3365 8.7127-5.3182 9.6179 7.6378 12.616 4.0735 7.4681-3.1117 2.942 4.4695-0.05658 5.0919 4.9787 2.0367-3.8472 1.7539 0.56576 2.9985-2.6025 1.471-3.1117-4.2432-11.824-0.2263-7.6378 1.0184-3.6775-2.5459-4.9221 2.0933-1.6407 3.4511-4.0169-3.734-2.0367 0.79207-0.62234 7.9772 4.5827 4.5827 5.0353 8.4298 11.315 8.939 4.9787 7.8075-0.90522 0.90522-9.6179-6.5628-6.5628-2.8288-4.6392 1.2447-12.334-12.56 2.8991-1.7704 3.5205 2.0803-8.8812-8.2411-0.7201-5.6008-3.4405-4.6406-4.0806-2.1603-1.1202 7.761-3.4405 2.8004-3.2804-5.2007z"/>
        <path d="m-35.925 53.607-0.88012-2.0403-2.6404-0.24003-5.8808-4.9207-2.2003 0.56008-2.2803-0.64008-0.08001 0.68009 5.2007 1.3202 5.1607 3.2404z"/>
       </g>
      </g>
     </g>
    </g>
   </g>
  </g>
 </g>
</svg>
