<?xml version="1.0" encoding="UTF-8"?>
<!-- Created with Inkscape (http://www.inkscape.org/) -->
<svg width="78.061mm" height="44.214mm" version="1.1" viewBox="0 0 78.061 44.214" xmlns="http://www.w3.org/2000/svg">
 <g transform="translate(-565.15 -627.06)">
  <g transform="translate(535.17 105.63)">
   <g transform="translate(-24.462 235.74)">
    <g transform="translate(39.875 -83.459)">
     <g transform="translate(-18.044 92.985)">
      <g transform="translate(-9.1228 25.812)">
       <g transform="translate(95.563 127)">
        <g transform="translate(-193.85 -75.087)">
         <g transform="translate(107.33 33.258)">
          <g transform="translate(149.52 99.988)">
           <g transform="translate(3.0289 161.85)">
            <path d="m-88.867-93.351 1.7114-0.09901 0.29702-2.4186 2.7439 0.53747 1.4003 2.9985 4.6392 0.76378 2.7439 2.3621 0.76378-0.91936 1.0184 0.3536 0.63648-0.94765 2.8995 1.5983-2.8712 3.1824 1.8529 1.0325 3.8472 4.4129 1.4144-1.8246 2.263-0.74964-1.1315-1.4144-0.87693-2.2489 3.536 0.66477 3.0834 2.1075 3.1258-1.3295 0.72135 1.8812-1.6831 1.4851 3.635 3.041 1.6124-1.3295 6.1527 2.1216 2.9985 3.437 0.53747 2.5742-1.4851 0.74963-2.065-0.01416-2.3479 3.4087-1.7114 1.1598-0.55162 2.4328 0.32531 0.97594-2.065 0.97594-0.59405 1.6407-3.6633 2.263-4.0311-0.7072-3.0834 4.512-0.46675-1.6124-4.8938-1.1881-1.075 1.4144-3.536-0.19802-3.3097-2.3196-1.2164 0.45261-5.3464-2.263-0.02829 0.79207h-0.9335l0.05658-1.0467-2.1782-0.08487-0.2263 1.3861 0.33946 3.0551-1.9236-0.2263-0.87693 1.471-0.36774 2.2065-3.0268-1.2447-1.1881 1.6407-3.6492-0.67891-0.11315-1.669-2.3762-1.2447-3.3663-3.7057-0.4809 0.79207-2.5459-2.9985-4.0735-4.2715-1.8387 0.50918-2.2657-3.7361-2.2803-4.0405 1.6802-2.7204-1.0001-1.3202-2.6804-1.6802-0.40005-2.0403-1.2002-1.2402 0.64009-1.0801 1.4002 1.1202 0.48007 1.4802 0.24003-1.1202 2.1203-2.7604 3.5605-0.88012 1.3202 0.92012 0.76011-0.52007 0.20002-1.3602 1.8803-0.12002 0.68009-1.5202 0.60008 0.08001 0.80011-1.0401 1.1602 0.88012 0.68009-2.2803 3.4005 0.12002 0.52007-1.3202 4.0405-1.5202 1.1602-0.32005 0.28212-0.69299-1.5841-1.1174 0.56576-1.1174 2.3479 0.18388 1.6124 2.5176-0.3536 0.9618 1.6549 0.36775z" stroke-width=".26458"/>
           </g>
          </g>
         </g>
        </g>
       </g>
      </g>
     </g>
    </g>
   </g>
  </g>
 </g>
</svg>
