<?xml version="1.0" encoding="UTF-8"?>
<!-- Created with Inkscape (http://www.inkscape.org/) -->
<svg width="45.514mm" height="57.368mm" version="1.1" viewBox="0 0 45.514 57.368" xmlns="http://www.w3.org/2000/svg">
 <g transform="translate(-441.85 -327.82)">
  <g transform="translate(535.17 105.63)">
   <g transform="translate(-24.462 235.74)">
    <g transform="translate(39.875 -83.459)">
     <g transform="translate(-18.044 92.985)">
      <g transform="translate(-9.1228 25.812)">
       <g transform="translate(78.181 167.14)" stroke-width=".26458">
        <path d="m-154.7-166.78 6.7609 2.7604 6.6409-0.40005-4.2006-4.2006 1.6802-3.6805 0.12002-3.0404 4.2006 5.2407 4.4406 2.4803 2.6404-1.6002-0.92013-6.3609-0.72009-2.6404-3.4805 0.08-4.9607 0.96013-0.84011-2.4403 5.4807-3.5605 1.6802-6.6809 3.8805 2.4003 2.0803-5.5207-2.4403-1.7202-3.7205 0.36005v-8.5212l2.1603-4.2006 0.76011-8.9612-6.3609 3.0404-5.8008 7.161h-7.801l-3.9605 5.9608-1.6002 4.6806 0.20003 6.8409 2.1203 3.7205-2.6404 2.5603-0.44006 4.7206 4.8006 2.0003z"/>
        <path d="m-117.51-186.98-4.3846 3.0268 2.065 1.6973-3.9484-1.6046-4.5098 3.6414-2.8005 0.45261 1.9236 2.7439 0.73549 2.942-1.5841 1.1032 1.9236 2.6874 4.6675 0.0283 1.3012 3.2531 2.3479 1.1032 0.9618-1.1598-0.0566-2.6591 3.5926-1.9519-1.0467-2.4894-1.8953-0.90522 3.9886-3.8189-0.0283-6.676z"/>
        <path d="m-127.94-166.18 2.8404 2.6004 3.3204-2.7204 2.4003 1.2002 4.2406-1.8002-4.7206 4.1206-0.88012 4.1206-2.5203-1.6002-3.1204 0.32004-4.8406-2.8404 0.88012-1.4802-2.0803-1.0401-1.1202 3.2804-1.3602-2.0203 3.3805-6.3008 1.1402 0.22003-2.0103 4.7606 2.0752 1.0722-0.24398-0.89107 0.95911-1.0312z"/>
       </g>
      </g>
     </g>
    </g>
   </g>
  </g>
 </g>
</svg>
