<?xml version="1.0" encoding="UTF-8"?>
<!-- Created with Inkscape (http://www.inkscape.org/) -->
<svg width="57.389mm" height="37.194mm" version="1.1" viewBox="0 0 57.389 37.194" xmlns="http://www.w3.org/2000/svg">
 <g transform="translate(-690.56 -563.03)">
  <g transform="translate(535.17 105.63)">
   <g transform="translate(-24.462 235.74)">
    <g transform="translate(39.875 -83.459)">
     <g transform="translate(-18.044 92.985)">
      <g transform="translate(-9.1228 25.812)">
       <g transform="translate(95.563 127)">
        <g transform="translate(-193.85 -75.087)">
         <g transform="translate(107.33 33.258)">
          <g transform="translate(149.52 99.988)">
           <g transform="translate(3.0289 161.85)">
            <g transform="translate(-83.884 -112.27)">
             <g transform="translate(-64.04 128.68)">
              <g transform="translate(-6.2365 -30.632)">
               <g transform="translate(188.06 114.29)" stroke-width=".26458">
                <path d="m23.683-260.76 2.3984 1.6363-2.3984 2.6843-0.24003 5.5207-1.9203 2.9604 2.8804 7.601-0.24003 2.5604 3.2004 2.6404 1.6802 2.9604-2.4003 1.8402-0.64009 4.0806-4.9207-0.56008-3.1404 2.5604-5.8208-4.8607-8.5612-2.7604 0.38005 1.4202-0.86012-1.2602-6.9809 5.6608 0.33623-7.0799 0.16973-1.6973-1.7539-0.45261-0.42432 2.5459-1.669 0.73549-1.3578-1.4144-2.5742-0.11316-1.4427-3.2531-1.5276-2.2348 2.8225-2.1982-3.5205 0.88012-0.60008-3.0804 1.9203-1.1602-0.44006-0.68009-1.5602 0.88012-0.12002-1.4002 0.64009-0.48007-0.7601-2.2003 5.1607-2.2803-0.20003-2.0803 6.2808-2.1203 2.8004-1.8002 2.7204 0.32005 4.3206-3.1604 7.241 1.3602 5.9608-0.68009 3.9605 0.32005z"/>
                <path d="m-28.118-241.89 1.5841 1.1315 1.7822-0.59405 1.3295 2.1216-0.11315 1.1881 1.6407 0.0566 1.2447-2.5459 2.2348-0.82036-1.1598-2.5176-2.4045-0.33945-0.99008-1.2164-1.471 2.0933-3.5077 0.90522z"/>
                <path d="m-18.189-243.7 2.1216-0.33945 0.39603-0.93351-0.84864-0.50918-1.9519 0.31116z"/>
                <path d="m-17.822-237.65 0.7601-1.1402 1.9803 0.32005 0.86012 1.7802-1.4402 0.44006-1.5002-0.7401z"/>
                <path d="m-25.29-223.56 1.4144-1.8387 0.25459-3.3946 2.7722-1.5276 1.1881 0.39603 2.3196-3.2531 2.5742-1.4993-0.59405-1.273-1.5276-0.31117-2.4045-1.2164-1.7539 0.9618-1.273-1.1315-2.4894 1.7539-0.11315 1.4427-3.3663 0.0849 1.3861 2.5459-1.4427 1.3861 2.0367 0.87693 1.7539 1.3295-1.0467 2.3479z"/>
                <path d="m-8.246-229.25 1.2164-0.5799-0.76378-1.6124-1.0184 1.0467 0.7072 0.42432z"/>
               </g>
              </g>
             </g>
            </g>
           </g>
          </g>
         </g>
        </g>
       </g>
      </g>
     </g>
    </g>
   </g>
  </g>
 </g>
</svg>
