<?xml version="1.0" encoding="UTF-8"?>
<!-- Created with Inkscape (http://www.inkscape.org/) -->
<svg width="100.57mm" height="185.42mm" version="1.1" viewBox="0 0 100.57 185.42" xmlns="http://www.w3.org/2000/svg">
 <g transform="translate(-596.9 -483.39)">
  <g transform="translate(535.17 105.63)">
   <g transform="translate(-24.462 235.74)">
    <g transform="translate(39.875 -83.459)">
     <g transform="translate(-18.044 92.985)">
      <g transform="translate(-9.1228 25.812)">
       <g transform="translate(95.563 127)">
        <g transform="translate(-193.85 -75.087)">
         <g transform="translate(107.33 33.258)">
          <g transform="translate(149.52 99.988)">
           <g transform="translate(-21.869 364.62)" stroke-width=".26458">
            <path d="m-44.469-310.09-0.33946 4.1301 1.6973 4.2998 1.7539 2.6591-0.56576 4.5827 3.9978 6.4636-0.80011 9.3613 1.9203 8.8012 3.5205-1.9203 2.0003 2.8804 4.9607 0.32007-0.88012 2.6404 3.0404-0.16005 1.6002-2.4003-1.1202 3.9205 1.7602 1.9203 2.0003 0.32004-2.4803 3.5205 2.9604-0.48007 1.7602-4.5606 0.24003 2.7204 6.7209-3.7605 1.8402 2.0003 1.3602-3.5205 3.7605-1.6002 4.0805-3.7605 0.96013 1.9203 2.0003-3.6005 2.8004 0.40005 6.3209-4.3206 4.6406-0.56007 9.6013-16.322 7.681-19.763 2.4803-5.9208 0.56008-7.521-6.8009-5.6008-9.6013-5.2007 3.5205-6.8009-2.3203-3.9205-3.2804-0.48006-1.6002-6.7209-4.7206-1.8402 0.40005-4.8807-2.5603-7.681 2.8004-1.7602-4.4006-7.601-9.2812-10.481 2.8004-15.842-6.7209-5.9208-5.4407-2.0803-1.4402-9.3612-2.4003-1.0402 2.7204-2.4803-1.6002-3.4404 1.4402-4.8807-2.8804-3.2804-4.5606-1.0401-4.0805-3.3604-2.0003 1.7602-1.8402 2.0803h-3.2804l-1.2802 4.3206-0.96013 0.72009-0.24003 7.441 2.0003 4.1605-1.2802 2.8004-2.5603 1.4402 0.24003 3.2804-2.0803 0.32004-6.2408-2.4003-4.0005 3.6805-5.6808-0.88011-6.1608-8.8812-3.0404 1.3602 0.7201 2.9604-0.80011 0.72012-2.0803-0.96015 1.9603 2.0403 7.321 6.2808 8.1611 3.1204 5.2807 6.3208-0.40006 7.841 3.1204 1.9202-1.0401 3.9206 4.2406 4.8807-1.2802 7.361 3.0404 5.1207 2.4003 5.2807 5.7608 2.0003 4.0806 2.2403-0.16002 2.8004 2.2403 5.3607-1.4402 1.0401 1.5202 0.88011-5.2007 2.0003-2.1603 6.4009-3.1204 8.8812-4.7206 7.441-2.0803-0.64008-1.6802 5.7608v2.9604l-5.2807 0.24005-0.16002 5.4407-1.2802 2.4003z"/>
            <path d="m-27.404-261.16 3.6405-0.96013-0.20003-3.1204-2.6804-0.36005-1.0001 1.2802 1.5202 0.48007-2.1203 1.7202z"/>
            <path d="m-35.445-261.64 1.6802-0.36005-0.68009-1.8002-1.2402 1.2002z"/>
            <path d="m-33.479-262.5c0.05658 0.0142 1.7539-1.1174 1.7539-1.1174l0.4809 0.62233 1.0042-1.1032-0.39603-0.55161-1.0891 0.96178-0.9335-0.79206-1.0608 0.56576-0.01415 0.76378z"/>
            <path d="m-50.387-266.36 0.82011 0.54009-0.08001 0.62008 1.6202-0.34004 1.1602 1.4202-0.10001 1.8202-0.66009 0.60008-1.3802-2.2403 0.58008 2.4203 1.2602 0.92013 0.34004-1.4202 0.90012 0.18003-0.42006 1.8202-0.32004 2.3403-1.4402-1.9403-0.06001-1.0001 0.16002-0.48006-0.52007 0.58008-0.90012 0.58007-1.7402-0.40005-0.48006-2.0403-0.64009 1.2402-0.54007 0.56008v-2.7004l1.7402-0.98014 0.48006 1.6002 0.54007-0.48007-0.04001-1.3002-0.86012-0.38005 0.20003-1.0001z"/>
            <path d="m-24.643-352.71-0.16002 1.0001 1.6002 0.98013 0.90012-0.7401-0.92012-1.0401 1.6002-0.36004-1.7802-0.52009z"/>
            <path d="m-46.086-318.4 2.4403 1.2802-0.84011 1.9802-1.2402-0.90012-0.90012-1.5002z"/>
           </g>
          </g>
         </g>
        </g>
       </g>
      </g>
     </g>
    </g>
   </g>
  </g>
 </g>
</svg>
