<?xml version="1.0" encoding="UTF-8"?>
<!-- Created with Inkscape (http://www.inkscape.org/) -->
<svg width="165.51mm" height="179.84mm" version="1.1" viewBox="0 0 165.51 179.84" xmlns="http://www.w3.org/2000/svg">
 <g transform="translate(-231.78 -152.4)">
  <g transform="translate(535.17 105.63)">
   <g transform="translate(-24.462 235.74)">
    <g transform="translate(39.875 -83.459)" stroke-width=".26458">
     <path d="m-226.53-105.51 1.471 6.9306 4.1018 0.39603 10.24 8.9673-0.22631 6.1668 7.8358-1.9236 7.0154 11.598 3.5926 0.02829 2.1499 1.5558 2.1499-0.82035 2.0084 1.0749h1.273l1.6973 3.8189 4.6392 2.6025 3.8189-0.7072 9.3916 4.4978-3.734 4.8373-3.0834 6.7891-2.2348 12.305-2.4328 2.2348-4.5261-1.4993 0.0387 3.1768-7.521 9.0012-3.2404 6.7209 7.281 0.60008 2.2003 9.8813-1.4402 3.4005 2.4003 7.561-7.361 1.3602 4.5606 5.5607-0.96013 10.521 9.2012 2.9204-3.0661 4.3863 0.65063 1.8387-8.5713 4.2432-3.9038 5.0919-10.863 0.56576-5.4879-5.3182-3.5643-3.6209-6.1668 2.1499-6.6194-4.1866-8.2035 4.5827-4.0735 1.0184-2.9985 5.3747 1.9236 7.8075-2.9985-1.867-13.918-1.2447-7.7509-6.2234-7.5812-3.5643-15.954-2.263-10.127-6.4497 0.62235-3.9038-3.9603-1.8104 4.9787-3.2248 6.2234-17.821 3.3946-15.558 5.2616 11.146-5.8273-14.144 2.8288-5.0919-0.11317-5.7142-7.7509-4.9787-2.8288-7.1852 3.338-6.2234-5.9971-1.867-0.84862-5.7708-5.8274-0.11315-8.6561-7.6378-4.1866 0.90522-3.9603-6.3365 5.7708-0.79207 0.22629-3.8472-5.0353-0.11315 0.90522-4.4129 21.046-1.1881 2.7157 7.5812 10.071-1.4144 3.8472 1.9802 0.4526-10.24-2.4894-6.2234 0.45262-3.5643 8.6562 2.0367 0.11313 5.7708 15.558 2.0933-2.8854-2.6025 13.295-4.4695 6.5063-4.3564 1.9236-11.089z"/>
     <path d="m-155.94 44.086-1.0401 5.2807-7.681 2.4003-2.4003 4.2406 3.2804 14.882 4.8006 3.4405 3.2804-6.5609 2.4003-15.282z"/>
    </g>
   </g>
  </g>
 </g>
</svg>
