<?xml version="1.0" encoding="UTF-8"?>
<!-- Created with Inkscape (http://www.inkscape.org/) -->
<svg width="101.03mm" height="135.83mm" version="1.1" viewBox="0 0 101.03 135.83" xmlns="http://www.w3.org/2000/svg">
 <g transform="translate(-452.17 -305.06)">
  <g transform="translate(535.17 105.63)">
   <g transform="translate(-24.462 235.74)">
    <g transform="translate(39.875 -83.459)">
     <g transform="translate(-18.044 92.985)">
      <g transform="translate(-9.1228 25.812)">
       <g transform="translate(116.78 94.696)">
        <path d="m-154.82-166.34 6.6409 2.4003 7.121 0.24003-1.2002 5.9208 11.762 1.6802 1.4402 4.2406-4.0806 1.4402 6.1608 2.6404 7.9211-4.3206 8.8812-4.5606 1.7602 2.8804 1.0401-7.041 5.3607 6.0808-5.9208 1.2002 3.3605 2.0003 2.8004-0.56007 1.0401 5.6008 3.762 2.1174 1.8104 7.9772-2.6591 8.2601 5.4477 4.3283-0.92012 2.9004 2.4603 6.3008-1.3802 3.9805 4.1806 6.7209 1.0401 3.2804-0.62008 3.9405-2.1203 3.8805-2.7604-3.9005-2.5203-0.14002-0.94013 1.2402 1.6202 1.7602-5.7008 1.9403-3.7805 1.2402-4.8206 3.6805-0.86011 0.42006-0.94013 1.0601-1.4402-0.58008-3.4605 1.2202-2.0803 3.0404-0.60008-1.3202-1.4202-0.60008-0.80011 1.3402 1.5202 1.6402 0.48007 2.1403 3.5005 2.3603-1.9403 2.8404 4.7406 7.9411 1.8402-0.20003 7.081 7.121 0.28003-1.0001 3.2404 3.8005 0.36005 2.3203-1.4602 2.1003-3.2204-1.2602-0.64009 4.2406-3.4805 1.1802-3.8605 2.9804 2.7004 4.4006-1.1202 2.5603 0.69753 1.0646s1.5417-0.74963 1.5417-0.69306c0 0.05658-0.59405 4.4695-0.59405 4.4695l-2.0933-1.57-1.1174-2.9985-6.4355-0.77792-1.7256 2.0933-5.6859 0.2263-7.5812 3.5077-0.67892-1.8387-5.8698-2.2348-2.8147 5.4879-4.1159-5.3323-3.5502 0.66477-5.1229-3.289-3.4005 0.80011-2.3603-3.1204-3.2604 1.8603 2.9604 1.0001-5.3207 0.16002-3.5205 1.2402-3.8005-0.96013 1.0401-6.9609 1.7202-5.9208 2.7204-6.4009 3.5205-4.5206-3.4005-2.0803-6.3608-2.6804-3.8805 0.64008-4.4806-2.7204-1.4002-3.6005-1.4002-0.04001 2.6004-4.6006-0.32004-3.0404-2.6004-0.68009-1.0401-3.7605 3.0804-2.9604-0.32005-3.6805-1.5202-0.36005 1.2002-1.7202-2.8404-2.3203 1.1602-2.8004-1.4402-1.9203 3.6805-2.8404-0.08-7.121-1.9603-3.8405 8.0811-0.44006 1.6802-2.0803-1.5602-1.4002 4.2806-3.2804v-3.8805l-3.8447-0.64971 1.0467-2.1075 3.2107 0.42432 2.065-7.8782 0.84864-4.2998-2.7722-0.90522 3.0551-6.3365 8.2601 0.39604 1.1881 5.3182 3.2814-2.8288 1.5841-5.4313 5.9971 0.56576-4.13-3.1683 1.6407-4.0169-3.3946-0.16972 4.4695-3.1683-3.6774-5.4879z" stroke-width=".26458"/>
       </g>
      </g>
     </g>
    </g>
   </g>
  </g>
 </g>
</svg>
