<?xml version="1.0" encoding="UTF-8"?>
<!-- Created with Inkscape (http://www.inkscape.org/) -->
<svg width="97.033mm" height="121.6mm" version="1.1" viewBox="0 0 97.033 121.6" xmlns="http://www.w3.org/2000/svg">
 <g transform="translate(-524.14 -515.67)">
  <g transform="translate(535.17 105.63)">
   <g transform="translate(-24.462 235.74)">
    <g transform="translate(39.875 -83.459)">
     <g transform="translate(-18.044 92.985)">
      <g transform="translate(-9.1228 25.812)">
       <g transform="translate(95.563 127)">
        <g transform="translate(-193.85 -75.087)">
         <g transform="translate(107.33 33.258)" stroke-width=".26458">
          <path d="m66.209 53.787 3.9605 0.20003 2.9804 0.96013 1.1802 4.0205-1.6802 0.90012-2.0603 1.8002 1.3602 4.1006-1.5602 2.6004-0.85738 2.4641-0.99008 0.79206-0.79207-1.8387-3.6209 0.19802-8.7976-0.16973-3.9603 2.6025-2.8288-0.28288-2.9985 0.11315-2.9985 3.8472-4.9787-0.22631 1.9236 3.6775 1.3553 2.3849 4.0405 0.36005 3.2804 2.6804-0.80011 0.88012-0.92013 0.08001-6.0408-3.4405-2.3203 1.1602 5.1207 4.7206-1.2002 1.2802-4.6006-4.4406-3.9205 0.36005 2.0803 2.7604 4.2806 2.0403-2.4403 0.7601-4.1606-3.1204-0.16002-2.3203-5.8808-2.0403 0.56008-2.8004-1.3602-1.2802-3.8805 3.6805 1.6002 1.4002-0.58757 4.3995 8.147 9.9008 4.5827 5.0353-1.8104 1.5276-4.2998-3.5077-1.4144 2.263 3.5077 3.4511-2.5459 2.4894-4.0169 0.39604 15.106 4.8656 7.6151 4.5042-0.80011 2.2003 2.3603 6.0408-0.96013 1.7602-6.9609-5.6808-6.5609 2.3603-1.4259 0.92219 3.2248 0.79206-0.22631 3.4512 5.8273 2.3196-4.0169 1.8104-7.6378-2.3762 3.9038 6.3931 3.338 7.5812-1.1315 1.6407 3.338 2.9985-1.9236 1.1881-5.4313-6.3365-2.7157 0.79207-0.11315 6.3365-2.4894-1.075-0.05658-3.7906-4.1301-4.9787-2.7722 1.0184 0.50919 4.9787-4.2998-2.0933-1.7539-5.9405 1.1881-3.8472-5.6576-4.9221-3.8472-2.2065 3.6209-6.9589 3.6774 0.90522 2.4894-3.9038 10.014 2.942 4.9221 2.1499 4.6392-4.0735-8.2035-2.9985-11.824 1.3012-4.4695 2.3196-4.9787 0.22631-2.8854-5.8839-3.1465-1.8434 1.0801-2.8804 4.3606 0.04-1.3602-2.4803-5.4007 0.7601-3.7205-3.6805-3.6405-2.3203-0.68009-3.4405 3.1204-3.8405-1.5202-2.2003 4.2881-2.6114 1.867-6.3931 1.6973-0.45261 1.0184-3.4511-1.2447-2.7722 7.5246-1.5276 4.809-3.1117 4.3635-2.5634 5.2007-0.64008 1.3602-1.6402-0.40005-2.4003 7.8011-2.4403 8.8812-2.3203 5.2007-2.8004 2.2003 2.4003 3.3204-0.56008 5.6808 2.2803 10.001-3.7605 1.7202-2.2403-2.4803-3.3605z"/>
          <path d="m32.079 110.38 9.4869 4.4154 0.16002 1.0802 2.4403 1.4202 3.2804-0.62009 4.6603 5.4722 2.8288 0.79207 1.1315-3.4512-4.8656 0.16973-2.8288-7.8075-6.6194-0.84864-3.7906-1.4144-1.6973-2.3762-2.9985 0.50918-2.1499 1.9236z"/>
          <path d="m47.637 167.01 2.4894-2.6025 8.4864 4.5261 10.297-2.7157 6.5628 1.3578 4.2998-1.471 0.45261 2.942 7.5812-3.5077 0.90522 2.6025-2.8288 3.9603-9.2785 0.90522-10.636 2.3762-3.3946-2.7157h-15.502z"/>
          <path d="m-3.3605 125.94 3.0404 2.0003 3.3605 0.24003-3.8405-7.361-2.9604 3.3604z"/>
          <path d="m-0.7201 119.14 2.0003-1.3602-1.0401-3.6005-2.0003 1.4402z"/>
          <path d="m0.24003 132.34 3.9205 3.1204 0.080011-3.8405z"/>
          <path d="m57.368 123.45 4.4129 3.734 0.45261-5.4313z"/>
          <path d="m71.06 134.31-2.263 5.8839 4.1866-1.9236-1.3578-4.1866z"/>
          <path d="m58.648 141.06h3.6005l-2.4803-1.9203z"/>
         </g>
        </g>
       </g>
      </g>
     </g>
    </g>
   </g>
  </g>
 </g>
</svg>
