<?xml version="1.0" encoding="UTF-8"?>
<!-- Created with Inkscape (http://www.inkscape.org/) -->
<svg width="79.281mm" height="52.847mm" version="1.1" viewBox="0 0 79.281 52.847" xmlns="http://www.w3.org/2000/svg">
 <g transform="translate(-579.44 -552.45)">
  <g transform="translate(535.17 105.63)">
   <g transform="translate(-24.462 235.74)">
    <g transform="translate(39.875 -83.459)">
     <g transform="translate(-18.044 92.985)">
      <g transform="translate(-9.1228 25.812)">
       <g transform="translate(95.563 127)">
        <g transform="translate(-193.85 -75.087)">
         <g transform="translate(107.33 33.258)">
          <g transform="translate(149.52 99.988)">
           <g transform="translate(-31.82 48.304)">
            <path d="m-60.008-43.526 2.1203 0.04001 6.2808 4.4806 9.4013-1.0001 4.0405-1.7602-1.9603-2.3603 2.8004-2.0003 5.3607-0.84011 1.4802-2.5603 3.6805 1.8002 4.3606-3.0004 2.0403-4.0806 0.04001-1.1602 3.4005-1.0001 3.9605 1.0001 3.4005-1.7602 1.9203 1.2802 1.4402 2.1203 1.7602 0.32004 3.3204-1.5202 6.6409 3.9605 3.0804 3.0804-2.9204 2.6804-3.9605 1.2002-3.8005 9.0812-3.0004 8.5612-3.0004 10.561-4.8006-0.7201-6.6536 3.7703-5.4313 0.84864-2.942-0.96179-5.2616 3.338-3.2814 2.263-7.3143 2.9834-12.431-4.2847-9.7311-8.3733-2.1499-5.3182-2.6025 0.11315 4.4129-2.7157 0.56576-2.3762-1.471-4.8656 2.942-1.8104v-3.1683l5.0919-0.11315z" stroke-width=".26458"/>
           </g>
          </g>
         </g>
        </g>
       </g>
      </g>
     </g>
    </g>
   </g>
  </g>
 </g>
</svg>
