<?xml version="1.0" encoding="UTF-8"?>
<!-- Created with Inkscape (http://www.inkscape.org/) -->
<svg width="77.13mm" height="65.289mm" version="1.1" viewBox="0 0 77.13 65.289" xmlns="http://www.w3.org/2000/svg">
 <g transform="translate(-119.59 -104.78)">
  <g transform="translate(501.24 541.95)">
   <path d="m-357.33-437.18 5.7608 13.922-5.1207 10.401 7.8411-1.7602 4.6406-7.521 10.081 4.9607 1.2802 9.7613 1.9203-7.681 9.2812 3.6805 6.8809-5.9208 1.9202 9.6013 8.3211-1.2802-7.521 9.9213 7.201 7.521-3.5205 8.6412-15.522 8.9612-24.483-0.64008-2.4003 2.7204-16.322-9.2813-3.0404-9.4413-10.401-3.0404 1.6002-4.4806 9.1212 0.8001-2.5603-11.522-9.2813-4.6406 1.9203-4.3206 17.762 6.8809-7.0409-5.4407 7.201-0.8001-6.5609-4.4806-7.361-2.7204v-5.1207l6.2409-1.4402 7.0409-3.5205 4.0006 6.8809z" stroke-width=".26458"/>
  </g>
 </g>
</svg>
