<?xml version="1.0" encoding="UTF-8"?>
<!-- Created with Inkscape (http://www.inkscape.org/) -->
<svg width="55.275mm" height="60.48mm" version="1.1" viewBox="0 0 55.275 60.48" xmlns="http://www.w3.org/2000/svg">
 <g transform="translate(-148.17 -139.17)">
  <g transform="translate(535.17 105.63)">
   <g transform="translate(-24.462 235.74)">
    <path d="m-310.94-200-4.5261 2.7156-5.3182 5.601-5.205 2.8288 3.5077 5.9405 4.5261 0.33946-1.075-1.867 4.1866-0.79206 2.4328 6.9589h2.3762l2.7722 2.8288-3.1682-0.11315 0.67892 6.676-1.8104 4.9221 0.62233 6.7891-4.8656 6.4497-2.8288 5.4313-13.013-1.6973-11.428 4.0735-10.976 1.1881-1.2447-7.5812-7.2418-2.3762 7.5812-3.3946-7.072-2.4894 20.028-3.734-12.107-1.1315 13.522-8.0904-6.28-3.6774-3.9603-5.1484 7.8641-4.809-6.3365-4.1301 4.6392-3.9603 13.409 4.5827 5.6576-4.6392-5.9971-2.8854 14.201-7.0154z" stroke-width=".26458"/>
   </g>
  </g>
 </g>
</svg>
