<?xml version="1.0" encoding="UTF-8"?>
<!-- Created with Inkscape (http://www.inkscape.org/) -->
<svg width="155.41mm" height="184.3mm" version="1.1" viewBox="0 0 155.41 184.3" xmlns="http://www.w3.org/2000/svg">
 <g transform="translate(-385.76 -163.25)">
  <g transform="translate(535.17 105.63)">
   <g transform="translate(-24.462 235.74)">
    <g transform="translate(39.875 -83.459)">
     <g transform="translate(-18.044 92.985)">
      <g transform="translate(-9.1228 25.812)">
       <g transform="translate(49.728 -187.34)" stroke-width=".26458">
        <path d="m-118.54-26.124 1.6002 6.2608 4.5606 1.6202 8.2211 1.0801 4.2806 1.3402-1.2602 0.58008-3.1604 2.7204 0.52007 2.5403 2.4603 0.28004-1.1002 1.3202 0.50006 2.2203 0.7401 3.0404-2.2003 2.2403-2.9204-1.9403-3.5405 3.4405-5.6937 2.5482-1.3012-0.73549-1.9236 4.1866 4.8656 4.9787-3.9038 4.6392 2.2065 9.5048 14.087 9.6179 4.8655 11.146 4.3564 9.8443 11.259 8.0904 13.861-0.05658 2.2065 1.1881-4.2998 5.6576 19.236 8.8825 9.9008 5.3182 8.147 9.2219-2.0933 5.9971-8.5996-8.2035-9.3351-3.5077-5.8273 8.2035-1.3578 6.3931 9.9008 4.8656-0.90522 8.7127-7.2417 2.9985-0.84864 8.4864-6.1668 7.4115-5.7708-1.6973 0.11316-4.8656 4.1866-4.809-2.1499-2.6025 5.601-4.7524-5.8273-11.315-3.9038-8.3733-9.4482-2.7157-1.7539-7.4681-6.2234 1.5841 0.9618-3.2814-5.2616-1.3578-5.3182-7.1852-7.4115 0.67891-11.655-9.5614-7.7509-10.014-11.485-8.7693-3.338-2.942-0.90522-7.8075-3.5643-11.542-12.051-5.601-8.2036-0.56576-5.7708 6.6194-6.8457 2.3196-0.20912-1.6816 3.236-4.0044-1.4144-2.2348-8.2224-2.3821 0.95237-9.4989-3.5077-3.5643 6.4497-2.5459-2.5459-8.7693 5.4879-3.0551 6.7326 0.84864 4.5827-6.2234 6.3931 6.3365 0.9618 2.7157 2.9985-0.56576 2.9985-10.467 1.9802 2.7722 4.6392-0.11315 3.5643 2.4328-0.11315-7.072 4.8656 1.6407-1.0184-6.1102 8.2035 1.5841 1.5276-3.6775 7.2983-0.2263z"/>
        <path d="m-158.75 74.737 5.4879 3.6774 3.2814 11.089-3.734 3.9038 0.73549 10.523-1.8104 10.071-7.2983-2.9985-0.9618 5.0353-2.8854 1.9802-5.4313-4.809 1.3012-11.202 0.67891-2.7157-0.28288-7.072-3.8472-5.6576 1.1881-6.2234 4.4695 2.263 6.1668-4.5261z"/>
        <path d="m-70.489 129.1-12.042 2.5604-14.602 3.6405-6.0008-4.4806-5.5207 3.3604-2.8804-3.2004-5.4407 7.681 17.682 8.9612 10.161 3.2004 13.202 7.361 1.3602-11.442-1.3602-8.0011z"/>
       </g>
      </g>
     </g>
    </g>
   </g>
  </g>
 </g>
</svg>
