<?xml version="1.0" encoding="UTF-8"?>
<!-- Created with Inkscape (http://www.inkscape.org/) -->
<svg width="71.739mm" height="40.848mm" version="1.1" viewBox="0 0 71.739 40.848" xmlns="http://www.w3.org/2000/svg">
 <g transform="translate(-624.95 -554.3)">
  <g transform="translate(535.17 105.63)">
   <g transform="translate(-24.462 235.74)">
    <g transform="translate(39.875 -83.459)">
     <g transform="translate(-18.044 92.985)">
      <g transform="translate(-9.1228 25.812)">
       <g transform="translate(95.563 127)">
        <g transform="translate(-193.85 -75.087)">
         <g transform="translate(107.33 33.258)">
          <g transform="translate(149.52 99.988)">
           <g transform="translate(3.0289 161.85)">
            <g transform="translate(-83.884 -112.27)">
             <g transform="translate(-64.04 128.68)">
              <g transform="translate(-6.2365 -30.632)">
               <g transform="translate(188.06 114.29)">
                <g transform="translate(-61.317 -37.807)">
                 <path d="m-19.689-222.12-5.8839 3.734-2.263 0.62233-2.3196 5.7708 0.62234 4.0735-3.1117 4.2432 1.0749 7.5812 1.1881 5.2616 2.263-3.1683 7.4115-3.9603 7.5812-1.075 11.824 1.1881 7.2417-4.4695s1.8104 1.7539 1.5841 1.7539c-0.2263 0 0.84864 2.0933 0.84864 2.0933l6.1102 0.50919 9.7877 6.1668 3.734-4.3564 5.8839-0.45261v-1.4144l5.205-6.3931-2.2065-5.7708-4.1301-4.6958-1.471-5.7142-3.6774-5.1484-6.5628-0.79206-3.1117 2.4328-5.8839-4.8656-8.2601-2.7156 0.2263 1.471-0.96179-1.1881-7.1286 5.601 1.5276 3.6774 1.4144 7.072-3.9603 4.9787-6.2234-0.62234-2.3762-5.3182-5.4879-3.7906z" stroke-width=".26458"/>
                </g>
               </g>
              </g>
             </g>
            </g>
           </g>
          </g>
         </g>
        </g>
       </g>
      </g>
     </g>
    </g>
   </g>
  </g>
 </g>
</svg>
