<?xml version="1.0" encoding="UTF-8"?>
<!-- Created with Inkscape (http://www.inkscape.org/) -->
<svg width="58.178mm" height="45.046mm" version="1.1" viewBox="0 0 58.178 45.046" xmlns="http://www.w3.org/2000/svg">
 <g transform="translate(-309.83 -577.85)">
  <g transform="translate(535.17 105.63)">
   <g transform="translate(-24.462 235.74)">
    <g transform="translate(39.875 -83.459)">
     <g transform="translate(-18.044 92.985)">
      <g transform="translate(-9.1228 25.812)">
       <g transform="translate(95.563 127)">
        <g transform="translate(-193.85 -75.087)">
         <g transform="translate(107.33 33.258)">
          <g transform="translate(149.52 99.988)">
           <g transform="translate(3.0289 161.85)">
            <g transform="translate(-83.884 -112.27)">
             <g transform="translate(-64.04 128.68)">
              <g transform="translate(-6.2365 -30.632)">
               <g transform="translate(188.06 114.29)">
                <g transform="translate(-61.317 -37.807)">
                 <g transform="translate(-317.28 -6.2643)">
                  <path d="m-26.324-176.82 8.2411 4.0005 5.5207-1.6002 3.3605 3.4405 0.24003 8.2411 8.7212 3.6805-0.32004 2.2403 12.242-1.2002 4.8006-7.281 3.3194-0.32445 0.53747 2.1216 1.7256-1.1032-2.6025-1.6407 0.2263-11.004 5.4596-6.3365 2.5459-1.4144-2.4045 0.7072-0.73549-6.9306-3.0551-1.0184-7.417-5.3808-5.8408-0.32005-2.0803-3.9205-7.121 4.3206-12.082-1.1202-7.9211 1.2802-7.281 3.8405-2.2403 3.4405 0.80011 4.8807 2.6404 5.9208z" stroke-width=".26458"/>
                 </g>
                </g>
               </g>
              </g>
             </g>
            </g>
           </g>
          </g>
         </g>
        </g>
       </g>
      </g>
     </g>
    </g>
   </g>
  </g>
 </g>
</svg>
