<?xml version="1.0" encoding="UTF-8"?>
<!-- Created with Inkscape (http://www.inkscape.org/) -->
<svg width="47.886mm" height="49.487mm" version="1.1" viewBox="0 0 47.886 49.487" xmlns="http://www.w3.org/2000/svg">
 <g transform="translate(-582.61 -642.41)">
  <g transform="translate(535.17 105.63)">
   <g transform="translate(-24.462 235.74)">
    <g transform="translate(39.875 -83.459)">
     <g transform="translate(-18.044 92.985)">
      <g transform="translate(-9.1228 25.812)">
       <g transform="translate(95.563 127)">
        <g transform="translate(-193.85 -75.087)">
         <g transform="translate(107.33 33.258)">
          <g transform="translate(149.52 99.988)">
           <g transform="translate(3.0289 161.85)">
            <g transform="translate(-83.884 -112.27)">
             <g transform="translate(-64.04 128.68)">
              <g transform="translate(-6.2365 -30.632)">
               <path d="m79.771-17.602 3.9337-1.9164 3.4229-8.2035 0.33946-3.338-2.4894-4.2998 2.7298-2.3903 6.676 0.7072 5.2702-1.2019-3.6005-5.9608-5.6008-2.1203-0.96013-5.7608-5.6808-1.8402-1.1202-7.9611-18.202-5.2007-10.721 2.8004-2.0003 2.6004 3.9605 0.36005 5.8808 7.761 6.4809 6.5209 5.4407 4.8807 2.8804 4.8006 0.88012 5.1207-1.2802 3.1204 3.0004 8.4811-1.1602 2.0403z" stroke-width=".26458"/>
              </g>
             </g>
            </g>
           </g>
          </g>
         </g>
        </g>
       </g>
      </g>
     </g>
    </g>
   </g>
  </g>
 </g>
</svg>
