<?xml version="1.0" encoding="UTF-8"?>
<!-- Created with Inkscape (http://www.inkscape.org/) -->
<svg width="44.977mm" height="47.439mm" version="1.1" viewBox="0 0 44.977 47.439" xmlns="http://www.w3.org/2000/svg">
 <g transform="translate(-339.99 -324.11)">
  <g transform="translate(535.17 105.63)">
   <g transform="translate(-24.462 235.74)">
    <g transform="translate(39.875 -83.459)">
     <g transform="translate(-18.044 92.985)">
      <g transform="translate(-9.1228 25.812)">
       <g transform="translate(33.204 89.919)">
        <path d="m-190.49-140.31 14.314-2.2065 4.5261 4.5827-2.0368 10.467-3.4511 0.0566-1.3012 2.7157 4.2432 0.45261-0.16973 3.7623-4.3846 3.2531 1.6973 1.3861-1.273 1.7256-8.9108 0.45261 2.5176 4.4695-0.0566 6.6477-3.9603 2.5742 1.471 2.3762-0.79206 2.5176-4.4129-1.6973 2.9137-5.9405-3.6492-2.4611-7.4963-4.1583-10.404 3.4792-5.5207-3.7605 9.2812 0.84011-8.4812-3.8405 5.7608-0.24003 9.3213-1.2802-7.001-3.4405 5.2807-6.7609 4.1606-11.482 3.1604 0.88012 2.3603 4.4006-3.8005 5.6008 7.8011-3.4805-9e-3 -3.8578-3.0551-0.79206 0.84864-4.5261z" stroke-width=".26458"/>
       </g>
      </g>
     </g>
    </g>
   </g>
  </g>
 </g>
</svg>
