<?xml version="1.0" encoding="UTF-8"?>
<!-- Created with Inkscape (http://www.inkscape.org/) -->
<svg width="181.16mm" height="236.83mm" version="1.1" viewBox="0 0 181.16 236.83" xmlns="http://www.w3.org/2000/svg">
 <g transform="translate(-300.3 -208.23)">
  <g transform="translate(535.17 105.63)">
   <g transform="translate(-24.462 235.74)">
    <g transform="translate(39.875 -83.459)">
     <g transform="translate(-18.044 92.985)">
      <g transform="translate(-9.1228 25.812)">
       <g transform="translate(-40.768 291.9)">
        <path d="m-5.6576-454.76-11.485 8.2035 14.483 3.2814 1.471 4.5827-2.942 0.62232-1.9236-1.5275 0.16973 5.4879-4.4695 7.2418-1.6973-3.9038 1.6973-5.3182-3.5077-3.0551-9.2219-4.8656-7.2983 4.7524-2.0367 5.6576-0.05658 8.2035 1.2705 2.8592-3.2004 3.9606 0.12002 3.3604-7.9611-2.2403-4.0805 3.8005-11.722-10.201-3.3605 2.0803 0.7201 2.6804-2.7604-0.52006-2.7604 2.4003 0.12002 11.122-12.162-2.6004-0.64009 10.841-4.5206-1.5202-7.241 11.642 3.0804 5.6808-7.0409 11.402 1.2002 3.3204-7.361 3.8005 0.08 13.682-6.6009 12.722 3.8405 2.0803-0.52007 8.0411-9.6413 0.04-4.7206 17.242 0.64009 23.883 4.9607 5.8808-3.8805 6.8409 2.3603 8.9212-5.0807 12.242-3.8805 3.2004 1.8402 5.3607-3.2004 7.681-3.0404-4.9607-4.4406-2.8804 0.24003-10.641-1.8402 11.762-4.5606 4.5606-3.1204-2.2403-4.3206 7.121-10.241 9.4413-14.962-1.0802-5.5608-7.481-3.941-3.2456 1.1881-6.9023 6.2234 1.8104-1.2447-8.9956-8.147 5.3182 1.1881-7.1852 6.8457-3.734 2.4894-7.1286 8.5996-4.6958-7.8075 1.7539-3.9038 6.5628-2.5459 1.4144-1.2447-2.3762 3.1683-2.263-5.0353-2.942 2.5459-4.1301 2.4894 1.3578 0.62234-3.6209-5.9971-3.2248 1.3578-4.809 20.82 1.471-20.311-2.263 0.0566-9.9574 3.8472-3.5077 10.071 2.8854-11.202-3.734 7.6378-5.0353 8.4864-11.032 8.4864 5.5444-7.7509-6.2234 10.919-4.2432 3.3946-8.543 11.089 8.5996 9.3916-10.976-10.297 8.0338 0.0566-10.297 13.013-12.164-5.7142-1.6973 15.672-7.2418-7.1286 1.471 4.6958-12.899 3.7906 0.90522-0.84864-8.0338 2.8854-10.58 13.578-3.8472-7.6944-2.942 8.543-8.0338-0.96179-7.1286 4.4129 3.6209 8.6562-10.58-22.348 7.2418-10.184 7.1286 6.4497-9.3916 10.41-3.734 4.2998-14.144 4.7524 10.523 8.0338-8.939-7.9207 2.7157 3.5077-10.636 4.6866 1.7133 3.8405 2.6004-4.9607-3.8805 3.9605-6.1608 1.2002-6.4809 6.1608 13.682-2.2403-14.322 5.0407 5.2007 0.08001 11.282 2.7204-12.642 1.2802 4.6406 2.0003-5.2807 4.4806 5.2807-1.4402-6.8009-3.3605-2.9604 11.682 4.0006 0.64009-13.682 3.0404 4.0005 6.9609-12.642-0.7201 18.242 6.6409-16.402 1.7602 10.081 2.4003-2.3203 0.80011-10.721 6.0808 0.32004-1.3602 8.1611 3.1204 0.32004 2.8804-7.841z" stroke-width=".26458"/>
       </g>
      </g>
     </g>
    </g>
   </g>
  </g>
 </g>
</svg>
