<?xml version="1.0" encoding="UTF-8"?>
<!-- Created with Inkscape (http://www.inkscape.org/) -->
<svg width="112.37mm" height="98.853mm" version="1.1" viewBox="0 0 112.37 98.853" xmlns="http://www.w3.org/2000/svg">
 <g transform="translate(-637.38 -493.98)">
  <g transform="translate(535.17 105.63)">
   <g transform="translate(-24.462 235.74)">
    <g transform="translate(39.875 -83.459)">
     <g transform="translate(-18.044 92.985)">
      <g transform="translate(-9.1228 25.812)">
       <g transform="translate(95.563 127)">
        <g transform="translate(-193.85 -75.087)">
         <g transform="translate(107.33 33.258)">
          <g transform="translate(149.52 99.988)">
           <g transform="translate(3.0289 161.85)">
            <g transform="translate(49.969 -63.643)">
             <path d="m-97.213-147.86h2.1603l15.842-6.1608 2.5603-1.0401 2.6404-4.6406 4.4806-0.96013 5.0407-3.0404 9.7613-2.4003 2.0003 4.3206 0.96013 2.8804 3.0404 1.1202 3.2804-0.64009 1.4402 1.6802 4.0805-2.9604 15.922 0.16002 14.962-2.6404 8.1611 3.4805-0.40005 2.0403 8.3611 19.363-0.36005 3.3204-4.3164 2.7214-2.6591 5.601 6.1244 0.93351 1.5841 9.4058 0.67891 6.379 6.6477 7.1993-0.28288 7.0862-2.8854 0.28288-10.537 17.722 2.2913 4.3847-0.36774 2.6732 1.9094 0.69306-3.1258-0.19802-0.21216 0.49504-3.9303-1.5709-2.2003-0.20003-1.4402-2.7204-3.9605-0.68009-6.1608 1.5202-1.2002 1.8002-3.8805-1.8402-5.2407 2.4803-0.56008 2.5603-3.7205-0.16002 0.48007-3.6805-4.6406-3.1204-2.6003 4.1206-2.6004 0.28004s0.44006-1.8402 0.24003-1.9203c-0.20003-0.08001-1.8402-0.32004-1.8402-0.32004l-0.64009-2.6804-2.9604-3.5205-6.2408-2.2003-1.6402 1.4002-3.4005-2.8404 1.7202-1.4802-0.88012-2.0403-3.2004 1.3202-2.9604-2.1603-3.7605-0.60008 0.92013 2.4803 1.0401 1.2802-2.1603 0.64009-1.4002 1.6402-3.9205-4.7206-1.4002-0.36005 2.8004-3.2804-3.2004-1.7602-0.68009 0.92012-0.96013-0.32004-0.68009 0.80011-2.7204-2.3603-4.6806-0.68009-1.3202-2.8804-2.9604-0.52007-0.40005 2.3603-1.5202-0.08001 1.5602-3.2404 0.56008-3.8405-1.1202-3.3604-2.5603-3.7605-1.5972-2.7684 1.471-3.9038-2.5459-6.5063 1.0749-2.7156-5.5445-4.5827 2.942-7.7509-1.867-8.0338 2.7722 0.62234 0.56576-2.3762-1.5276-0.50919-1.5841 0.90522-0.90522-0.96179z" stroke-width=".26458"/>
            </g>
           </g>
          </g>
         </g>
        </g>
       </g>
      </g>
     </g>
    </g>
   </g>
  </g>
 </g>
</svg>
