<?xml version="1.0" encoding="UTF-8"?>
<!-- Created with Inkscape (http://www.inkscape.org/) -->
<svg width="119.26mm" height="84.291mm" version="1.1" viewBox="0 0 119.26 84.291" xmlns="http://www.w3.org/2000/svg">
 <g transform="translate(-517.79 -678.92)">
  <g transform="translate(535.17 105.63)">
   <g transform="translate(-24.462 235.74)">
    <g transform="translate(39.875 -83.459)">
     <g transform="translate(-18.044 92.985)">
      <g transform="translate(-9.1228 25.812)">
       <g transform="translate(95.563 127)">
        <g transform="translate(-193.85 -75.087)">
         <g transform="translate(107.33 33.258)">
          <g transform="translate(149.52 99.988)">
           <g transform="translate(3.0289 161.85)">
            <g transform="translate(-83.884 -112.27)">
             <g transform="translate(-64.04 128.68)">
              <path d="m52.167-61.208-3.5205 2.1203-1.3202 3.2404-14.002 7.641-4.1206-3.0004-16.922-0.52007-6.4009 6.2808-3.9605 0.92012-3.2004 7.681-3.2004 9.4813-3.4401 11.239-4.809-0.67891-6.5628 3.6775 7.8075 5.4879 0.33946 5.0919 9.6179 4.9787 1.0184 4.1866-1.5276 2.3762 7.1852 1.2447 2.7722 3.3946 3.3946-5.205 4.0169 2.7157-3.6209 1.8104 4.0169 4.2998 4.809 1.6407-2.4894 3.734 9.0522-0.67891 9.1088 1.1315 9.7877-1.9802 5.4313 0.84864 8.147-8.3167 9.9008-4.6392 6.1668 1.3013 6.3365-1.2447 2.8288 3.0551 6.3931-0.28288 0.39603-4.1866-1.6407-5.4879 1.9236-3.338-1.8104-4.0169 1.9802-1.2447-1.3012-2.6025 2.0933-1.0749 1.4144 3.338 5.7142-2.0933-0.16973-3.8472-0.45261-2.4894-1.273-3.0268-3.5926-0.84864-6.0819 4.8656-5.7708 0.90522-2.6591-3.4794-2.4328-1.8104 1.1315-2.0933-2.9985-8.741 1.3295-2.942-0.9618-4.9787-3.1966-4.611-11.909-11.626-5.601-7.4115z" stroke-width=".26458"/>
             </g>
            </g>
           </g>
          </g>
         </g>
        </g>
       </g>
      </g>
     </g>
    </g>
   </g>
  </g>
 </g>
</svg>
