<?xml version="1.0" encoding="UTF-8"?>
<!-- Created with Inkscape (http://www.inkscape.org/) -->
<svg width="58.104mm" height="75.416mm" version="1.1" viewBox="0 0 58.104 75.416" xmlns="http://www.w3.org/2000/svg">
 <g transform="translate(-529.7 -467.78)">
  <g transform="translate(535.17 105.63)">
   <g transform="translate(-24.462 235.74)">
    <g transform="translate(39.875 -83.459)">
     <g transform="translate(-18.044 92.985)">
      <g transform="translate(-9.1228 25.812)">
       <g transform="translate(95.563 127)">
        <g transform="translate(-193.85 -75.087)">
         <g transform="translate(140.83 52.169)">
          <path d="m-19.604-13.013 7.8924 5.6576 0.36774 5.3747 9.4482 4.6392 1.0184 4.0169-1.8387 2.6308 7.6944 1.2447 2.9702 3.4229 3.4511-5.2616 3.5926 2.3762-3.6775 1.7539 3.7906 4.1018-0.2263 2.8288-2.6308 1.3013 0.05658 3.734 2.942 5.2899 6.5911 4.6392-2.7439 5.2616-3.6492 1.3578 0.39603 4.9504 1.4144 1.8953-1.4993 2.8005-6.1952 0.0035-10.127 3.4194-6.1102 3.5643-8.147-8.4298-5.205-1.7539-5.3747 9.9008 1.6973 4.6958-8.7127-7.072-2.9985-1.9236 1.0184-4.7524-1.867-4.809 6.8457-5.3747-0.18438-3.6671 6.0808-2.2403-2.7204-6.6409 4.5606-1.5202-7.521-4.8807 1.8402-9.7613-3.6005-1.5202 0.40006-2.6404 3.6005-1.1202-0.96013-1.7602-4.3206-1.4402 0.08001-3.8405-3.0404-5.2007 7.281-4.8807 4.2406 0.40005z" stroke-width=".26458"/>
         </g>
        </g>
       </g>
      </g>
     </g>
    </g>
   </g>
  </g>
 </g>
</svg>
