<?xml version="1.0" encoding="UTF-8"?>
<!-- Created with Inkscape (http://www.inkscape.org/) -->
<svg width="38.228mm" height="25.629mm" version="1.1" viewBox="0 0 38.228 25.629" xmlns="http://www.w3.org/2000/svg">
 <g transform="translate(-505.35 -527.31)">
  <g transform="translate(535.17 105.63)">
   <g transform="translate(-24.462 235.74)">
    <g transform="translate(39.875 -83.459)">
     <g transform="translate(-18.044 92.985)">
      <g transform="translate(-9.1228 25.812)">
       <g transform="translate(85.993 173.15)">
        <path d="m-70.862-22.461 2.4894-0.08486 2.5459 5.9688-8.8825 5.6576-1.1315 6.3082-4.6392 1.9236 2.0085 4.611-2.5459 1.0467-7.6095-4.1018-8.147 4.2149-5.4879-1.2164 4.7524-2.0933-3.5077-3.14 0.40319-3.0746-1.2402-0.16002-0.16002-1.8002 1.3002-1.5002-2.8604-0.26003-0.48006-2.3203 3.3204-2.8004 1.3202-0.46006 6.9809 1.0201 2.7604 0.66009 4.4206-3.4405 0.7401-1.2002 6.9009 0.52007 1.2802-1.6402 4.7606 0.52007z" stroke-width=".26458"/>
       </g>
      </g>
     </g>
    </g>
   </g>
  </g>
 </g>
</svg>
