<?xml version="1.0" encoding="UTF-8"?>
<!-- Created with Inkscape (http://www.inkscape.org/) -->
<svg width="65.289mm" height="34.655mm" version="1.1" viewBox="0 0 65.289 34.655" xmlns="http://www.w3.org/2000/svg">
 <g transform="translate(-671.78 -540.81)">
  <g transform="translate(535.17 105.63)">
   <g transform="translate(-24.462 235.74)">
    <g transform="translate(39.875 -83.459)">
     <g transform="translate(-18.044 92.985)">
      <g transform="translate(-9.1228 25.812)">
       <g transform="translate(95.563 127)">
        <g transform="translate(-193.85 -75.087)">
         <g transform="translate(107.33 33.258)">
          <g transform="translate(149.52 99.988)">
           <g transform="translate(3.0289 161.85)">
            <g transform="translate(50.54 -108.85)">
             <path d="m-59.928-59.048-3.0404 4.4006-0.80011 5.0407 3.3605 3.6005 0.40005 2.1603h2.2403l3.2404 2.8004 2.8404 1.6402 8.8412-1.0001 4.1206-1.4002-1.7602-2.3603 2.8804-2.3203 5.4407-0.7601 1.5602-2.6404 3.6405 1.6002 4.2806-2.7204 1.9703-3.9855 0.13321-1.1877 3.5219-1.1315 3.8755 1.0184 3.5409-1.7945 2.1603 1.2402 1.2802 2.2003 1.6002 0.24003 3.3204-1.5202-0.32004-4.2006 3.1204-8.2411-3.9605-1.5202-2.1603-0.32004-1.5602-2.6404-3.7905-0.66009-6.0358 1.5202-1.2686 1.7221-3.9721-1.8121-5.0857 2.4253-0.39005 2.7754-4.1506-0.35005 0.47006-3.8205-4.4906-3.0104-2.5803 4.0605-2.7704 0.28004 0.37005-1.9603-1.9203-0.31004-1.4902 0.7601-2.0203-0.02-2.3203 3.4405-1.7202 1.1202-0.54007 2.3003 0.34004 1.0401-2.0803 1.0401-0.62008 1.6002-3.7405 2.2803z" stroke-width=".26458"/>
            </g>
           </g>
          </g>
         </g>
        </g>
       </g>
      </g>
     </g>
    </g>
   </g>
  </g>
 </g>
</svg>
