<?xml version="1.0" encoding="UTF-8"?>
<!-- Created with Inkscape (http://www.inkscape.org/) -->
<svg width="169.15mm" height="146.13mm" version="1.1" viewBox="0 0 169.15 146.13" xmlns="http://www.w3.org/2000/svg">
 <g transform="translate(-139.44 -98.954)">
  <g transform="translate(535.17 105.63)" stroke-width=".26458">
   <path d="m-374.76-6.676 8.2601 7.5812 17.765 2.4894 17.539 9.5048 9.8442-0.11315 6.3365 3.9603 15.162 4.0735 4.0538 5.7435 10.481 6.5609 15.842 2.3603 15.362 9.6813 17.362 3.1604-1.5202 3.6405 1.0001 5.0407-14.682 6.9209-20.323 5.6008-0.8001 5.1207-18.162 17.282 2.7204 11.282 3.7605 2.6404-6.6409 3.1204-5.7608 4.7206-5.6808 7.521 2.4803 1.6802-9.6813-0.32004-7.521 4.6406-6.5609 7.8411-16.322-4.3206-15.362-2.6404-14.962 5.6008-1.0401 5.7608-1.6002-3.3604-4.3206-0.40006-5.0407-12.002-1.4402-8.8012-11.522-6.0808 1.6802-7.521 8.4011-4.8006 1.1201-3.8405-2.5603-6.0008 5.5207-8.0011-3.3604-10.321 7.281 0.88012 1.3602-9.3613 4.2406-4.0005 0.32004-9.5213 10.641-7.521-3.9205-9.4413-18.803-4.3206-1.5202-5.4407-9.4413 2.3203 4.6406-11.602-5.4407-8.3211 6.5609-3.6005 8.5612 1.2002-0.32007-3.3605z"/>
   <path d="m-267.72 102.25-4.0806 2.4003 2.9604 2.9604 3.6005-2.9604-1.2802-1.6002z"/>
   <path d="m-254.99 96.333 4.8807 1.4402 5.2807 6.0008 7.041-8.2411-5.8408-2.2403-0.08-2.2403z"/>
   <path d="m-232.58 92.955 5.9971 2.942-2.6591-5.7425-4.3846 0.62234z"/>
  </g>
 </g>
</svg>
