<?xml version="1.0" encoding="UTF-8"?>
<!-- Created with Inkscape (http://www.inkscape.org/) -->
<svg width="96.779mm" height="245.47mm" version="1.1" viewBox="0 0 96.779 245.47" xmlns="http://www.w3.org/2000/svg">
 <g transform="translate(-462.49 -336.55)">
  <g transform="translate(535.17 105.63)">
   <g transform="translate(-24.462 235.74)">
    <g transform="translate(39.875 -83.459)">
     <g transform="translate(-18.044 92.985)">
      <g transform="translate(-9.1228 25.812)">
       <g transform="translate(66.26 378.09)" stroke-width=".26458">
        <path d="m-63.329-418.26 8.9212 7.561 8.4811 3.2004 4.8406 6.2408v8.1211l2.7204 1.5602-0.64008 4.4806 4.1206 4.5206-1.3202 7.601 5.8008 10.281-7.441 2.3603-5.0396-1.0033-4.5261 12.107-2.8288 6.3365 4.1866 6.1102-5.5445 12.334-10.976 11.315-7.9207 8.2601-4.4129 8.3733 1.2447 12.447-0.56576 17.425 10.976 5.0919 7.0154 10.41-8.3733 7.8075 4.0735-1.2447 1.6973 1.8104-2.4894 2.0368-3.9603 6.7891-2.3762-5.8839-1.5841 7.3549-7.3549 2.7156 2.942 2.1499-2.263 1.6973-0.11315 10.863 0.79206 5.4313-0.45261 7.3549-3.9603 14.257-2.263 4.1866-10.976-1.471-4.2998 5.6576 1.5841 5.8839-4.4129 2.942-11.542-1.0184 2.263-4.7524-5.3182-9.9574 3.6209-6.3365-7.9207-14.823-4.0735-8.4864-1.2447-8.0338-2.942-6.5628v-6.4497l2.3762 3.734 2.4894-0.90521 1.3578-7.1286-1.6973-4.9787 3.6209-3.5077 5.0918-12.334-2.0367-9.1653 3.8472-6.5629-5.205-6.4497-0.33946-23.083 4.4129-16.747 9.8443 0.11316 1.0184-9.618-3.5077-2.0367 5.8839-12.22-0.11316-13.239 7.5812-3.8472-1.471-3.734 7.1286-10.976-3.0551-5.7708 6.7891-10.863 4.7524 1.471 1.2447-10.523 11.542 2.0367 0.11315-11.655z"/>
        <path d="m-60.14-201.92 3.5077-2.6025 1.3013-5.2616 2.0367-2.6591-2.0367-4.5827 4.5827-5.4879-6.7326 2.0933-3.3946 5.7708-0.33946 6.5063z"/>
        <path d="m-75.73-189.11 4.9207-18.202-0.44006-2.8004-1.2802 2.8004-2.8004 7.161-2.2003 5.9608z"/>
       </g>
      </g>
     </g>
    </g>
   </g>
  </g>
 </g>
</svg>
