<?xml version="1.0" encoding="UTF-8"?>
<!-- Created with Inkscape (http://www.inkscape.org/) -->
<svg width="52.609mm" height="35.885mm" version="1.1" viewBox="0 0 52.609 35.885" xmlns="http://www.w3.org/2000/svg">
 <g transform="translate(-389.2 -379.68)">
  <g transform="translate(535.17 105.63)">
   <g transform="translate(-24.462 235.74)">
    <g transform="translate(39.875 -83.459)">
     <g transform="translate(-18.044 92.985)">
      <g transform="translate(-9.1228 25.812)">
       <g transform="translate(57.014 43.251)">
        <path d="m-174.02-37.105 4.3206 0.88012 3.1004-1.1202 5.5208-0.58008-2.8804-0.94013 2.7204-1.4202 2.5403 2.9404 3.2604-0.86012 5.3007 3.4405 1.0802 2.3603-1.1002 1.0601-1.7202 2.3203 0.36005 2.4203 4.7006 0.84012 0.18002 1.6202 3.6605 1.5402 2.3203-2.4403 1.3002 1.1001s-0.24003 2.3003-0.24003 2.3803c0 0.08001 0.98013 5.9408 0.98013 5.9408l-5.3407-2.3003 0.6801 7.541-3.6805-3.8405-4.3206 1.1202-2.3803-3.4805-2.8804 11.762-2.6004 0.42006-1.5802-4.0805-6.0208-4.9607-4.6406 6.3409-6.7009-1.2402-4.6806-0.44006-2.0131-8.7574-6.4497-0.19802 2.8421-6.9867 7.441-8.8812-0.16002-2.7204 4.5206 1.7202z" stroke-width=".26458"/>
       </g>
      </g>
     </g>
    </g>
   </g>
  </g>
 </g>
</svg>
