<?xml version="1.0" encoding="UTF-8"?>
<svg width="621.2mm" height="637.4mm" version="1.1" viewBox="0 0 621.2 637.4" xml:space="preserve" xmlns="http://www.w3.org/2000/svg"><g transform="translate(259.6,227.3)" stroke-width=".2646"><path id="denmark" transform="translate(3.75e-6)" d="m1.126 64.61 3.368 3.531 4.859 1.406 0.5033 1.244 3.404-1.065 4.894 1.656 0.3513-3.531-3.142-2.745-3.109 1.389 2.811-4.002-1.428-4.784 3.274-1.59-1.777-1.637 5.566-3.181v-4.818l5.192-0.7483 2.572-3.742-6.08-2.432-0.8887-7.343 2.853-4.864-0.7016-5.472 1.777-3.742-6.408 2.76-4.584 6.501-8.7 0.9354-4.823 5.218-1.191 13.43 1.852-0.3969 0.5953 3.44-2.447 1.852-1.257 4.63 5.589 1.621-0.04995 7.487z"/><path transform="translate(3.75e-6)" d="m14.41 58.02 4.934 6.221 3.905 2.549 3.087-2.081-1.349-8.195-1.687 2.381-1.588-2.943z"/><path transform="translate(3.75e-6)" d="m40.58 46.82 4.537 2.058-4.677 10.66 3.368 2.526-4.724 2.292 1.053 3.202 4.002-0.1654-6.218 4.829 0.1323 3.407-3.274-2.183-6.582-2.017 0.09922-3.638 5.821 2.712 2.745-2.613 2.15 1.687 1.096-1.984-3.173 0.2406-2.529-1.675 1.38-2.502-5.238 0.421-2.783-8.396 4.005-1.318 1.72-3.936 2.745 0.1323 0.5622 5.259 0.2646-5.622z"/><path id="moldova" d="m214.3 168.5-3.623 4.058 5.051 1.497 7.834 10.24 10.48 9.635 1.684 6.361-0.6548 4.49 2.152 7.671-0.2806 3.929 2.302 1.456 5.421-5.59 1.606-7.485-1.571-5.839 8.068-0.8868 5.409-1.551-3.646-6.952-5.173-1.792-0.8248-5.989-4.449-0.9694-2.909-9.268-3.805-0.247-14.24-4.682z"/><path id="romania" d="m210.5 172.7 5.194 1.437 7.872 10.19 10.45 9.6 1.712 6.333-0.6739 4.508 2.175 7.671-0.2795 3.931 2.332 1.532 7.14 2.588 7.805-5.676 4.349 2.625-0.1819 7.508-5.235 1.836-1.356-3.274-2.572 1.076 1.45 3.601-1.731 2.385 0.5613 4.818-0.7016 1.777 1.31 9.027-4.397 0.9822-5.098-3.368-12.02-0.4677-10.57 5.285-4.49 6.314-14.41 0.9354-5.098 1.964-9.775-1.45-7.296 0.7016 2.385-4.256-5.472-1.777-3.321-3.648 3.742-2.385-4.537-2.152-2.993 4.724-8.279-3.929-1.543-7.343-9.746-5.028-0.5292-4.498-6.813-5.821 5.424-0.5953 0.926-2.646 4.035 0.1984 1.558-6.494 5.188-11.56 1.323-6.218 6.284-4.895 3.429-6.737 7.043-0.2382 16.98 2.495 9.885-4.951z"/><path id="poland" d="m150.3 71.23 7.367 3.485 0.5098 3.546 6.636 13.33 1.906 7.792-6.829 4.804-0.5033 5.216 6.022 2.208-0.7865 7.755 2.457 3.569-0.0175 1.497 6.785 6.364 0.6286 9.223-3.373 0.2456-9.797 17.13 3.724 8.949-4.134-0.0496-6.598-2.216-2.679-2.877-8.797 0.1984-1.29 2.778-3.109-1.984-5.854 2.216-0.7276 2.844-3.539 0.0331 0.0331-3.605-4.498-3.274-2.348 4.035-2.877 0.1654-2.381-4.895-3.109-4.035-8.367-0.7938-1.521-5.92-9.922-1.389 1.058 3.969-3.506 2.249-5.027-5.887 2.646-2.844-12.83-2.977-1.257-3.373-3.506-0.6615 0.893-4.829-5.126-9.525 0.926-7.276-0.9922-5.953-5.622-4.101 3.175-8.334-1.654-4.564-0.9922-6.813 19.25-6.548 4.299-5.49 4.101-1.058 10.32-4.895 5.027 0.1984 2.249 6.945 6.747 0.7938 1.588 1.521 3.506-3.506 16.07-0.06615 8.004-0.926z"/><path id="bulgaria" d="m173.8 251.2 5.518 1.685-2.393 4.269 7.314-0.5978 9.838 1.47 5.069-2.08 14.41-0.9416 4.49-6.318 10.57-5.282 11.99 0.5271 5.126 3.344 4.405-0.991 1.017 3.875-1.257 3.407-4.299 0.1984-1.907 4.003 0.7717 5.94 0.6314 2.993-2.479 0.1871-2.474 4.935 3.506 0.3307 5.424 6.548-4.696 1.588-5.755-1.654-8.004 3.903-2.514 5.226-2.679-0.2976-0.7607 2.315 2.183 2.977-0.7607 2.315-7.253 1.398-3.882 2.292-4.864-2.432-5.379-1.731-6.08 1.169-5.379 3.227-8.793 2.198-0.1403-7.156-2.806-4.818-4.864-1.45-2.245-2.806 2.058-3.368-2.198-5.472 6.127-7.39-6.787-4.453-2.778-5.689 2.348-4.862z"/><path id="lithuania" d="m128.2 57.81 4.134 0.6945 0.463-0.7607 7.144 2.679 5.986-0.6945 3.638 3.605-1.422 5.986 1.245 2.147 0.9004-0.304 7.396 3.49 0.5259 3.507 4.256-0.4693 4.879 0.5364 2.526-2.573 2.04 0.0062-0.1468-3.188 2.691 0.0041 0.5199-2.212 2.606-1.12 0.1085 1.559 1.577 1.42 2.555-0.9632-0.8237-3.107-2.679-0.03135 1.33-4.176-1.055-3.095 1.181-4.297 1.974 0.2046 1.177-4.281 3.16 0.2865 1.865-3.953-4.061 0.3814 0.4566-6.765-3.517-0.1842-7.519-6.026-6.284 0.1323-1.852-4.167-3.043 2.447-0.6615 1.72-8.136-0.7276-6.085 1.786-6.284-0.6615-3.506 0.06615-7.144 4.498-0.6615 2.514h-1.389l0.4961 5.027 0.7938 1.918 0.1654 1.951 0.0661 3.274z"/>d="m197.3 31.13 0.5846-2.058-2.292-3.882-3.235-3.524-2.611-2.018 0.4677-8.045-4.116-3.274-4.818 0.3274-4.537 1.263-5.987-4.49-7.671-2.713-4.537 2.526-3.789 2.853 0.9822 4.209 1.918 6.735-5.659 5.94-4.724-1.497-2.292-5.145-5.753-3.882-0.0935-2.339-8.092 4.911-2.292 5.519 0.8887 4.256-3.134 3.976 0.7016 11.23 1.058 1.659 1.327-0.01654 0.6987-2.466 7.182-4.499 3.535-0.07028 6.249 0.6232 6.097-1.751 8.121 0.7369 0.6366-1.707 3.09-2.507 1.882 4.207 6.253-0.1165 7.515 6.035 5.209 0.1612 1.037-2.361 1.514-1.038 4.811 0.2829 0.1627-2.873 3.469-5.186z"/&gt;
        <path id="belarus" d="m158.2 78.27 9.149 0.03307 2.547-2.538 2.067-0.04961-0.1798-3.208 2.692-0.01402 0.5496-2.201 2.496-1.076 0.1169 1.535 1.637 1.432 2.631-1.003-0.8827-3.195-2.684 0.01455 1.338-4.173-1.076-3.077 1.209-4.239 1.976 0.2279 1.161-4.306 3.198 0.3215 1.859-4.11-4.081 0.3274 0.4794-6.642 1.713 0.04678 1.009-2.394 1.483-1.023 4.812 0.2522 0.1653-2.9 3.477-5.11h0.6615l1.74 1.89 5.098 0.725 6.08-1.777 1.637 4.256 6.408-4.958 7.577 2.666 3.835 9.775-1.403 5.145 13.38 9.542 1.497 5.005 7.671-0.608 4.397 5.847-5.94 6.314-7.25-0.421 4.069 9.121 5.186 8.684-2.489 0.1902-8.322 8.437 2.108 8.804-19.77-0.34-12.12 4.261-16.94-3.069-19.5 2.978-4.271 6.37-3.195-1.155-0.1151 3.965-2.469-3.488 0.7845-7.774-6.036-2.202 0.494-5.185 6.84-4.811-1.914-7.801z"/><path id="slovakia" d="m158 177.6-4.87 2.07-3.976-3.461-4.256 1.777-3.789-0.9354-3.134 1.123-1.684 5.192-8.279 1.31-9.074 4.537 0.7484 3.087-12.35 2.526-8.279-4.35-3.976-6.408 0.9466-4.285 2.811-4.498 4.994 0.7938 5.391-5.027 0.2646-3.77 4.564-4.366 3.293-0.5932 1.175 2.3 2.9-0.1814 2.346-4.024 4.407 3.279 3e-3 3.593 3.666-3e-3 0.6966-2.875 5.798-2.128 3.15 1.988 1.329-2.815 8.693-0.1739 2.691 2.805 6.603 2.281z"/><path id="hungaria" d="m139.8 221-6.891-0.4083-4.724 4.163-2.479-0.7951-3.227 2.152-2.198 0.2338-2.993 3.461-9.401-1.31-6.548-5.426-7.39-5.098-4.022-6.829h-1.497l4.537-4.163-1.31-5.519 2.479-2.198-3.227-2.479 4.397-0.1403 3.742-0.5145 0.0172-5.513 8.333 4.33 12.42-2.588-0.7803-3.093 9.064-4.519 8.292-1.303 1.675-5.211 3.121-1.118 3.789 0.9416 4.248-1.783 3.974 3.459 4.968-2.082 5.764 4.526 4.069-0.1447-3.403 6.755-6.276 4.897-1.457 6.223-5.092 11.57-1.538 6.447-4.021-0.2345-0.9562 2.683z"/><path id="czech" d="m63.31 137.6 3.368 0.1871 0.9354 3.368 1.953 0.3859 1.267-3.504 3.486 0.6855 1.234 3.35 12.83 2.946-2.631 2.828 5.062 5.94 3.539-2.289-1.027-3.926 9.817 1.381 1.539 5.91 8.385 0.7824 3.109 4.027 1.192 2.599-3.298 0.5974-4.586 4.368-0.2719 3.783-5.363 4.985-4.981-0.7607-2.846 4.417-0.5549-1.885-5.325-1.224-4.63 1.554-8.83-4.167-3.737-0.2977-0.1323 4.63-3.373 3.109-7.904-0.6284-2.48-2.745-3.086-3.504-8.513-6.221-6.79-13.33-1.588-3.969 2.447 2.381 5.49-4.63 7.541-3.506 4.498-1.654 5.953-3.572-1.984-1.257z"/><path id="austria" d="m72.98 173.7 3.692 0.2771 8.836 4.172 4.635-1.544 5.301 1.217 0.5684 1.945-0.9281 4.302 3.876 6.401-0.05241 5.556-3.682 0.5291-4.47 0.1447 3.269 2.527-2.544 2.144 1.404 5.569-5.193 4.587-1.678 0.5846 1.052 3.04-2.268-1.403-3.718 1.497-8.466 1.006-0.4346 2.099-2.943 1.753-5.887-1.588-4.862-0.3638-6.78-1.29-7.342-1.124-2.547-2.017-2.679-4.101 1.482-1.997-6.034 2.081-6.892 0.2462-2.183 3.638-4.134-2.249-2.348 0.43-0.4391-2.58-3.344 2.526-3.905-1.941 0.5379-1.333-2.479-0.912-0.2094-2.391-1.902-0.4134 2.29-2.745-0.09094-1.381-1.058-1.248 2.695-0.8103 3.349 2.23-0.09356 1.824 1.777-0.5145-0.3508 2.245 3.555-3.251-0.2339-2.362 5.127 1.25 1.191 2.646 4.961-1.191 6.648-2.745 3.307 0.1654 0.2977-1.984 3.572 1.521 2.58-0.926 2.514 4.134 1.852-3.01-2.414-1.984-0.06615-4.266-1.918-2.348 6.449-3.605 1.621-4.531 3.241 1.191 1.108-4.665 2.318 2.443 7.925 0.6191 3.389-3.117z"/><path id="serbia" d="m132.9 220.7 6.909 0.3452 6.822 5.828 0.5246 4.498 9.755 5.028 1.526 7.37 8.35 3.939 2.977-4.746 4.484 2.114-3.754 2.387 3.285 3.644-0.6514 2.638-2.356 4.855 2.807 5.702 6.758 4.44-6.173 7.383 2.256 5.478-2.238 3.52-1.105-1.228-7.579 3.602-3.737-0.0661-0.8599 3.671-2.861-2.343-4.163 2.993 0.5613 2.806-1.029 1.356h-2.152l-0.1632-5.144-5.169-3.322-2.105-3.274-1.123 0.6548 1.076-6.829 1.123-1.543-7.39-5.519-6.537-3.12 1.588-1.323 1.786 1.323 0.5292-2.977-4.564-4.961 4.035 0.8599 1.191-2.447-4.294-3.538-2.619-0.608 2.479-10.43-3.555-0.3274-0.9732-3.717 4.498-1.687-6.118-2.216 1.422-3.01-2.348-0.6284-1.096-5.93 2.759-2.122 2.479 0.7381z"/><path id="macedonia" d="m173.1 283.9 1.599 1.797 1.947 2.068 4.84 1.482 2.801 4.783-0.0579 7.187-2.167 0.2534-0.4911 3.648-7.694 1.286-6.697 5.367-8.401 1.191-3.173-0.4534-4.17-7.186 0.1654-5.126-0.3183-4.192 2.174-0.0497 1.047-1.422-0.57-2.809 4.13-2.952 2.883 2.348 0.8518-3.71 3.735 0.0998z"/><path id="montegro" d="m130.9 267.8 6.544 3.175 7.384 5.429-1.115 1.543-1.2 6.918-2.1 1.149-1.554-3.522-5.032 9.2 1.777 1.263-0.3742 4.256-2.689-1.31-4.069-5.496-1.668 0.2387-0.1984-3.737-3.638 0.926 1.084-4.022-1.777-2.502-0.2806-3.508 2.666-0.3274-0.1871-3.882 2.806-2.385 1.263 1.871 1.356-0.9354-2.515-3.374z"/><path id="bosnia" d="m123.9 283.8-0.5161 2.215-3.81-0.788-6.127-5.145-2.152 1.029-1.076-1.263 1.59-0.7484-1.263-2.245-2.43-1.17-2.117-2.613 0.2315-2.646-1.984-0.1654-12.53-12.04-2.514-7.045-3.803-2.117 0.06615-8.467 2.844-0.0992 4.101 3.803 2.249-4.266 3.737 0.5953 1.257-1.72 11.87 3.704 1.753-2.414 1.885 1.621 6.019-0.7938 2.613 3.87 3.704-1.257 3.398 0.1085-2.39 10.36 2.652 0.6208 4.249 3.504-1.152 2.39-4.049-0.8573 4.506 5.04-0.4715 2.793-1.769-1.251-1.621 1.387-3.579 1.004 2.562 3.387-1.31 0.8868-1.282-1.904-2.844 2.468 0.1028 3.824-2.708 0.2873 0.3629 3.65z"/><path id="slovenia" d="m58.71 218.3 4.614 0.3914 5.937 1.53 2.968-1.778 0.4238-2.113 8.47-0.957 3.678-1.501 2.408 1.46-1.123-3.14 1.637-0.5262 0.573-0.4326h1.514l3.847 6.823-2.76-1.052-1.248 1 1.058 2.216-3.109-0.1654-5.622 4.862 1.687 1.124-0.1438 4.293-5.285 1.403 1.731 4.63-6.969 0.3742-3.087-3.929-2.011 3.648-4.163-0.0935-1.123-0.3274-1.123 1.45-4.864-0.8887 2.806-2.011 1.777 0.421-0.09356-2.339-3.648-1.684 0.9588-2.853-1.988-1.006 1.964-3.087-3.414-0.3508-0.1169-2.058z"/><path id="germany" d="m61.33 86.7 1.089 6.814 1.628 4.526-3.163 8.338 5.598 4.131 1.017 5.918-0.9561 7.302 5.142 9.517-0.9048 4.816-1.225 3.489-1.904-0.4063-0.9469-3.333-3.429-0.2067-0.2835 1.201 1.963 1.243-5.933 3.559-12.02 5.161-5.477 4.534-2.625-2.485 1.761 4.213 6.722 13.37 8.665 6.259 3.096 3.63-1.068 4.709-3.265-1.236-1.637 4.604-6.606 3.569 2.074 2.446 0.07347 4.262 2.422 1.954-1.802 2.922-2.496-4.151-2.592 0.8416-3.664-1.526-0.3049 2.063-3.231-0.2129-11.51 3.897-1.19-2.71-5.402-1.134 0.2748 2.473-3.285 3.055 0.339-2.137-1.824 0.5497 0.09353-1.824-3.403-2.222-2.699 0.7283-3.59-2.54-4.729-0.43-3.44-2.943-2.745 2.183 2.48 1.819-4.498-0.6945-3.274 0.9922-4.2-0.8268-0.2977-2.91s0.4963-5.889 0.4963-5.702c0 0.1871 3.461-7.343 3.461-7.343l5.238-7.998-8.887-4.21-4.49 0.421-3.508-1.31-2.479-5.379-1.497-0.1871 2.058-4.116 0.1871-1.777-2.619-1.263-0.9822-4.958 3.274-3.18-0.7951-2.853-1.45-0.7952 1.403-1.59-3.134-2.479 1.356-2.9-2.198-1.824 3.461-2.385 1.169-6.361-2.666-5.285 2.245-0.608 2.806 0.7016 5.145-2.011-1.731-2.058 3.789-1.964 0.5613-3.976-3.648-1.403 3.555-2.105 2.993-10.99-1.824-2.479 3.181-5.098 7.858-0.09356 0.1871 5.145 5.098-1.684 0.7483-6.174 7.764 2.152-4.537-2.619 1.403-2.619-3.929-4.022 4.303-3.087-3.882-6.221 0.4677-1.029 5.192 1.45 0.5613 1.216 3.414-1.029 4.864 1.637v3.929l-2.292 1.169 3.274-0.3742 5.94 3.555 2.385-1.59 1.59 0.8887-0.4677 3.321-3.648 0.9822 1.824 2.666 2.806-1.263 3.04 1.637 1.964-4.163h4.911l2.619-2.058 6.595-2.339 1.403 2.152 1.076-1.263-1.029-1.356 1.123-4.069 2.619-0.2806-1.824 2.526 1.731 1.216 0.04678-1.964 2.292 0.2806-1.169 2.058 1.964 2.385-0.8887 1.497-1.31-1.964-3.274 2.198 2.572 2.152 3.368-1.029z"/><path id="albania" d="m143.8 284.3 2.168 3.333 5.119 3.113 0.1374 5.218 0.3507 4.223-0.1623 5.151 4.195 7.192 3.173 0.4572 0.3771-0.0277-0.269 1.848 1.447 1.292-1.124 4.432-2.249 0.4961-0.7938 5.854-3.274 0.7276-1.29 1.521 1.687 2.745-2.943 3.704-2.943-1.091 0.3638-3.076-4.197-3.731-4.256-1.637-2.9-3.742 2.993 1.731 0.5613-3.789-2.619-0.3274 0.7951-6.174h1.076l-1.029-1.777 0.3274-4.537-1.777-1.871 2.152-4.069v-3.695l-3.461-0.6548 0.3137-4.203-1.813-1.238 4.982-9.091 1.552 3.475z"/><path id="netherland" d="m-17.41 91.31 4.524 4.746-2.941 10.83-3.625 2.204 3.724 1.45-0.532 3.876-3.846 1.968 1.745 2.067-5.052 1.975-2.78-0.8068-2.445 0.75 2.799 5.316-1.186 6.338-3.476 2.388 2.219 1.856-1.435 2.844-3.403-0.4093-0.3859-1.894 1.637-1.239 1.263-3.929-3.882-2.783-3.04 0.4677-1.497-4.069-5.659-0.2339-4.256 2.058-3.368 1.076-5.051-0.8887-0.2806-2.479 9.542 1.169-3.04-1.964-5.145-0.7484-0.1871-1.777 4.771-0.1871 2.806 3.04 1.59-0.0468-3.508-3.087-2.614-1.487 0.2646-0.893 5.391 2.695 1.257-0.2977-2.811-1.422-0.5953-1.753-1.554 0.1323v-0.7276l1.521-0.5953 4.101 4.2 4.432-0.9591-3.539 0.0331-3.274-2.348-1.158-3.076 1.356 0.1323 3.539-3.208 2.381-4.895 2.414-7.805 3.373 0.7276 0.3307 3.638 2.381-0.463-1.521 2.183-2.051-0.2646 0.7938 3.506-2.051 1.852 5.159 1.918 4.101-2.514-3.307 0.926-0.9922 1.124-2.844-1.852 4.762-3.175 3.307 0.7938v-1.323l-2.514-0.2646 1.124-4.101-3.307-0.1323 1.191-5.953 6.085-3.109 4.63 0.3307z"/><path id="luxembourg" d="m-30.91 149.6 1.918 0.492 1.065 4.984 2.626 1.236-0.1933 1.766-2.15 4.131-1.678-0.8847-1.951 1.091s-2.381-1.918-2.315-1.951c0.06615-0.0331 1.409-2.363 1.409-2.363l-2.035-2.853 1.614-3.297z"/><path id="bolgaria" d="m-33.75 160.3-3.87 0.1488-0.8004-2.129-5.516-3.791 0.6945-6.152-1.323 0.0992-3.539 3.671-3.836-1.554 1.032-5.346-4.303-1.731-1.497 0.9822 0.09354-3.648-3.882-1.543-1.076-4.864-3.321 1.356-2.9-7.203 9.817-3.899 0.4796 2.894 5.275 0.7441 3.522-1.257 4.023-1.987 5.622 0.259 1.511 4.076 3.041-0.496 3.844 2.741-1.313 3.888-1.637 1.245 0.4412 1.977 3.507 0.4196 3.112 2.449-1.414 1.608 1.523 0.8144 0.8031 2.807-3.303 3.155-1.985-0.4841-1.7 2.403-1.605 3.281 2.023 2.855s-1.314 2.199-1.313 2.2z"/><path id="switzerland" d="m19.03 211.9-1.091 3.359 1.339 0.4961-0.4796 2.15-2.778-1.174 0.1323-1.224-1.902 0.4134-0.7441 2.877 1.951 0.463-1.091 1.554 1.422 1.455-2.514 1.257-1.091-3.836-3.737 1.72-2.117-3.737-2.844 0.4961 1.257 2.414-3.605 4.928 0.03307 4.233-2.381-0.6615-1.389-3.407 1.554-0.8599-3.44-1.158-2.183-2.679 0.9591-3.605-2.48 0.3307-2.844 3.407 1.455 1.422-2.15 1.356-2.282 2.712-3.208-1.554-6.213 1.972-2.948-5.345 0.3307-5.226-4.299-0.893-2.249 2.084-1.257 3.903-3.407-0.463-0.1984-2.778 2.282-0.0992-0.2315-3.175 1.29-3.142 3.473-1.951 0.5622-3.506 3.506-0.9922 4.729-4.895-0.4961-2.745 4.762 1.158 1.968-2.059 4.256 0.783 3.271-1.017 4.823 0.8097-2.777-1.961 2.713-2.165 3.435 2.939 4.73 0.433 3.602 2.6-0.02688 0.1209 1.06 1.219 0.08268 1.37-2.441 2.868 0.1406 2.906 4.601 0.6987-0.5351 1.336 3.971 1.988 3.29-2.566z"/><path id="estonia" transform="translate(-280.6 -281.8)" d="m411.4 274.5 3.251 0.1871 1.403 3.438 2.198-0.5613 2.339-3.064-1.66-2.83-1.801 0.3976-1.263-1.239-1.146 2.385z"/><path transform="translate(3.75e-6)" d="m154.7 8.055 3.805-2.828 4.548-2.542 7.678 2.73 5.986 4.434 4.53-1.24 2.981-0.2791 2.824-6.189-4.829-5.821 0.7276-3.44-3.109-7.011 4.299-10.72-1.72-1.323-9.459 2.249-8.93-1.124-5.226 2.977-8.467 1.918-5.027 4.564-2.712 1.521 2.778 3.969-2.315 0.9922 4.035 2.844-2.646 0.1323 0.9922 3.638 2.977 3.572h4.498l0.8599-2.91 2.051 1.588z"/><path transform="translate(-280.6 -281.8)" d="m410.8 281.8 1.193-0.4677 1.286 1.637 3.765-4.373 5.051 0.4443 0.1169-1.801 2.081 0.1871 0.7484 1.988-2.76-0.2573 0.1403 0.7016 2.268 0.9588-3.344 2.339-1.777 2.666-3.227 0.608-1.824 5.846-1.403-0.7951 1.637-3.835-3.414-1.824 1.31-1.918z"/><path id="finland" d="m139.3-26.27 13.44-6.615 8.682-6.615 14.37-4.858 9.708-15.53 9.929-25.4 0.4134-8.268-16.02-10.65 2.894-6.718-7.855-8.682 0.3101-2.377-5.064-4.031 1.137-12.2-13.33-19.33 3.411-13.13-6.408-6.718-5.788-1.447-1.55-14.47 0.0667-7.934-2.046-3.435-9.428-5.189-4.239 4.239-5.481 5.408 2.046 11.99-3.727 4.019 0.4385 3.142-1.973 1.608-7.162-3.654-3.727 3.873-5.189-0.8039-6.212-9.281-3.946 1.608 1.389 3.873-1.608 2.046 16.22 8.404 5.189 5.627-0.5846 8.77 6.066 10.89-1.462 7.235 6.358 10.16 9.72 3.946 2.485 8.551-0.3654 2.996-5.554 1.023-6.212 16.37-8.258 10.3 1.754 1.608-6.139 2.85-0.3654 6.358-1.802 4.843 3.824 6.925-0.8785 4.134 4.754 7.545-2.17 8.992 2.119 8.113 3.876-0.6201 2.791 2.532 4.289 0.155-1.137 2.713 2.021 0.2349 3.033-2.85-1.498 3.581z"/><path d="m131.4-27.07 3.049-0.4392 0.7493-2.325-0.9124-0.9424-2.266-0.3837z"/><path id="alland" d="m105.6-26.79 0.2325-2.429 1.99-0.9043 0.4909 1.602 0.5426-1.964-1.163-1.344 4.263 1.783-0.801 2.894-1.369-2.635 0.7493 3.256 1.912-1.034-0.2584 4.005-2.145-2.558-2.532-0.05168-0.4909-1.731z"/><path d="m133.3-117 3.747-0.0775 0.4134-2.946-4.677 0.9043z"/><path id="grecee" d="m225.4 287.5-0.7235 2.157 2.25 2.988-0.8404 2.412-7.286 1.381-3.885 2.281-4.923-2.405-5.335-1.743-6.053 1.176-5.395 3.195-8.96 2.267-2.198 0.2636-0.4886 3.627-7.734 1.288-6.698 5.364-8.004 1.146-0.2356 1.876 1.407 1.279-1.12 4.461-2.256 0.5075-0.7845 5.87-3.285 0.708-1.276 1.503 1.686 2.745-2.962 3.724 1.2 2.324 0.8103 3.01 3.175 1.058 3.506 3.969 0.6615-2.381 5.159 1.058 0.1984 2.844-5.622-0.5292-0.2646 2.183 4.084 2.022 0.7016 3.04 0.7951-0.6548 0.6548 3.976 3.414-1.964-0.9822-1.824 3.461 3.601 4.724-2.152 7.296-0.4677v-1.59l2.713 2.479 0.8887-2.198 2.479 2.572 5.706 0.421 0.3742 1.169-3.648 0.8419 0.3742 2.432-7.671-2.572-7.717-2.432-2.76 1.403-0.7484 2.152-4.163-0.7951-1.45 5.005-1.59 1.123 3.648 3.835 3.976 1.918 2.198 3.508-1.731 2.713 2.432 5.94 3.508 1.731-0.3742-5.238 2.713-1.403 3.555 5.706 0.8887 4.163 2.339 0.5613-0.0468-6.408 2.9-0.6548 3.087 4.63 4.303 1.169-3.368-4.49 0.9354-1.777-4.022-5.426-3.508-7.577 1.029-0.5145 5.145 1.918-1.356 2.339 2.666 0.1871s0.8887-1.871 1.169-1.871c0.2806 0 3.508-1.824 3.508-1.824l-6.08-1.824-0.7016-3.789-2.432-0.1403 0.8419-1.076 6.221-3.134 0.6548 0.8886-1.871 2.245 4.35-0.8887 5.332 3.601 1.123-0.8887-2.76-6.595 0.7951-2.152-6.735-2.432v-0.7016l5.753-0.0467 2.947 4.397 4.864 2.339 0.8886-4.116-4.818 0.2339-2.011-4.584 0.7016-1.123-2.198-2.339-4.584 0.1871-5.8-3.789-1.731-1.029-3.929 2.947 1.356 1.31 4.116 1.029 4.303 2.806-0.8419 1.263-3.344-0.5145-0.2105-1.964-11.86-2.546 6.284-1.984-0.463-3.506-2.514-1.389 1.984-2.447 3.44 2.183-0.2646 1.984 2.514-1.521-3.043-4.895-4.299-2.183-3.572-6.085-2.844-2.844 1.191-4.101-1.455-1.852 4.233-3.043 1.455 1.323-2.646 1.191 1.588 1.984 6.152 2.117 1.389 4.432 4.961-0.1323-5.755-4.498 0.2646-1.323 4.63 1.588 3.77 3.572 1.124-2.117-5.821-3.572 3.175-2.117 6.615 4.035 1.058-2.646-8.665-1.984-2.977-4.63 2.315-2.051 3.307 1.323 3.638-4.762 4.895 0.7938 4.432-3.506 12.5 1.521 0.6615 1.389 3.44-5.292-1.621-4.498 3.936-2.447-1.72-4.333-3.249-1.36z"/><path d="m206.2 400.1 0.1654 6.714h17.59l1.323 3.307 12.12-3.96 8.793-1.403 1.029-6.127-8.653 5.706 0.1403-4.49-10.57 0.7951-11.32 2.619-1.918-4.163-4.911 1.964-1.403-3.929-2.011 1.684 1.871 2.806z"/><path d="m269 374.4-6.361 6.548 3.368 4.958 3.742-4.49 0.7484-7.296z"/><path d="m142.1 333.6 4.432 6.118 3.704 0.5622-3.34-2.051-0.6284-6.019z"/><path d="m158.1 348.9-1.538 3.985 3.192 0.2977-0.4465-3.489z"/><path d="m157.3 355.2-0.7607 2.877-1.521-1.058 0.1323 4.796 0.9591-2.514 1.819 3.274 4.266-0.4961-2.315-3.836-1.058 0.3969z"/><path d="m159.9 364.3c-0.0331 0.1323 5.391 3.836 5.391 3.836h-2.183l-0.2315 1.72-3.737-3.407z"/><path d="m194.2 387.7 1.31 5.051 3.368-0.2806-1.029-3.929z"/><path id="croatia" d="m113.5 280.1 6.124 5.138 3.833 0.7783-0.5398 1.886-9.132-5.911-4.949-0.6592-3.936-1.753 0.7938 1.389-2.547-0.463-2.514 1.191-2.381-1.091-0.03307-1.191 5.424 0.0331-0.893-1.158 4.961 0.8268 1.819 1.257 0.7235-0.4982 1.087 1.286z"/><path d="m69.5 251.9-1.588-1.753-0.9922-4.2 1.951-0.8268-0.1654 2.679 1.158 3.704z"/><path d="m71.49 245.9 1.567 0.0701-1.029-2.502-1.052-0.5379-0.3976-2.315-1.146 0.421-0.09356 1.497-1.356 0.9588 0.9822 0.8653 1.543 0.1871z"/><path d="m93.68 276.2 5.275 1.505 6.777-0.6538-0.912-0.5846-5.776-0.0467-2.502-1.076z"/><path d="m94.37 274.1 6.548 1.146 0.5613-1.731-5.987-0.7717z"/><path d="m78.67 264.8-5.168-4.607 0.8185-0.7951 5.005 4.934z"/><path id="italy" d="m58.67 218.2-3.859 3.368 0.05487 2.11 3.509 0.309-1.971 3.073 1.997 1.021-0.9591 2.844-1.658 2.121-3.043-1.852-1.786 1.72-7.574 4.696 0.1488-2.812-2.713 2.011-0.6548 5.238 4.537 3.695-1.777 3.648-1.403-1.403-0.09356 7.016 4.63 7.764 9.448 6.408 1.59 0.3742 4.958 9.354 2.432 8.793 7.016 6.174 8.045 5.706 12.53-1.123 2.058 2.806-4.584 3.742 0.9354 1.871 17.31 7.296 3.742 3.368 7.577 2.245 7.858 8.98-1.59 5.893-5.987-3.368-1.684-5.426-9.354-1.403-1.59-1.684-5.706 8.045-1.216 6.455 9.074 5.613 0.6548 7.951-5.051 0.7484-3.742 2.993 1.497 5.987-5.893 4.958-0.8419 4.864-6.548-0.7484-0.4677-6.455 2.9-0.6548 0.3742-5.8 4.116-1.871-1.497-6.08-4.958-13.84-3.087-3.274-9.448-2.9 0.8419-3.835-2.152-3.555-6.455 2.152-1.31-4.584-7.484-8.138-8.232 1.216-6.735-4.864-6.735-8.232-10.48-8.419-6.922-9.354-3.742-0.8419 0.9354-4.584-4.49-13.19-9.448-5.8-7.951-3.181-7.858 6.735-8.513 3.742-0.7493-1.98 3.704-3.076-1.025-2.613-3.836 0.8599-4.696-2.778-1.124-4.101 3.506-3.44-1.191-2.712-3.175-1.521 1.588-2.712 4.233-2.051 0.5292-4.299-4.299-5.556 9.087-2.91 3.344 1.565 2.209-2.863 2.159-1.381-1.461-1.42 2.827-3.397 2.447-0.3152-0.9446 3.582 2.186 2.682 3.427 1.151-1.551 0.8537 1.398 3.416 2.406 0.6656-0.02688-4.234 3.6-4.935-1.245-2.402 2.808-0.4754 2.111 3.75 3.743-1.738 1.075 3.846 2.59-1.302-1.457-1.45 1.109-1.567-1.955-0.4661 0.7638-2.812 1.796-0.3886-0.1189 1.17 2.844 1.176 0.4858-2.185-1.334-0.4951 1.088-3.409 2.306-0.3989 4.157 2.285 2.21-3.677 6.881-0.2026 5.87-2.079-1.418 1.892 2.605 4.202 2.66 2.002z"/><path d="m0.2492 310.1-8.996 6.813-5.887-3.175-0.3969 7.938 4.299 4.829-1.654 5.887 2.051 2.381-3.373 7.607 0.5292 8.07 7.673 1.124 2.381-6.218 6.747 2.646 2.952-16.78-2.245-2.526 3.929-4.958-4.022-8.325v-3.274z"/><path d="m88.42 363.2-0.05376 1.079-5.503 8.56-1.403 5.659 3.742 7.109-3.461 4.397 1.497 2.105-1.964 0.7016-8.138-2.853-3.882-5.472-5.145 0.4677-9.748-6.536-7.541-1.852-3.638-4.167 4.233-6.284 2.844 2.844 3.175-3.638 5.424 1.72 3.44 2.315 12.24-1.852 1.654-2.249 5.093 1.058z"/><path id="malta" d="m67.52 403.1 6.813 5.424 1.257-1.984-5.755-4.696z"/><path id="france" d="m-67.9 128.6 2.979 7.26 3.331-1.384 1.057 4.866 3.851 1.543-0.06201 3.661 1.534-0.9839 4.177 1.754-1.017 5.361 4.01 1.554 3.502-3.676 1.204-0.0877-0.7501 6.129 5.594 3.804 0.8083 2.182 4.129-0.2499-0.09062 0.1695 2.38 1.95 1.941-1.101 1.701 0.9384 1.567 0.1112 2.475 5.372 3.535 1.308 4.488-0.4009 8.825 4.169-5.208 7.996-3.446 7.346-0.5013 5.695 0.2935 2.949-1.991 2.094-4.785-1.191 0.488 2.786-4.716 4.866-3.498 1.016-0.5612 3.503-3.471 1.954-1.295 3.148 0.2387 3.164-2.291 0.1034 0.1812 2.843 3.504 0.4716 1.215-3.955 2.234-2.035 4.233 0.8912-0.3015 5.176 2.848 5.293-2.965 1.113 4.363 5.628-0.5183 4.206-4.171 2.076-1.747 2.706 3.31 1.633 1.196 2.633-3.565 3.404 1.189 4.178 4.752 2.775 3.82-0.832 0.8217 2.503-3.741 3.109 0.8227 2.344-5.192 1.802-6.78 5.126-4.398 3.571-12.63-4.397 0.275-1.456-4.157-0.4613 2.947-1.918-2.479-1.31-0.7484 2.479-5.847 0.1403 0.608-1.637-6.408-3.087-8.279 4.537-4.724 1.59-2.385 7.39 1.777 5.472-2.619-1.59-5.94 1.029-4.35-2.011-5.847-1.824 1.029-1.263-13.7-7.484-1.356 2.853-9.121-1.637-8.325-6.735-8.325-2.993 1.824-2.9-5.005-3.087 4.911-4.022 5.051-16.09 3.274-0.6548-2.713-2.058 4.958-13.56 5.238 12.35-1.497-9.542-4.958-5.613-1.497-6.829 2.526 5.472 1.45-8.887-7.343-4.818-2.485-6.572 2.183-3.506-2.15-4.597-1.422-4.696-16.54-10.78-5.226 1.058-3.307-5.755 5.689-0.1984 0.8599-3.373-6.019-1.72 1.323-4.035 14.09 0.9922 5.953-1.72 3.836 6.615 14.42 1.455 0.0661-8.665-2.183-11.24 8.731 2.183-1.124 5.556 10.91 3.704 7.607-1.852-4.167-1.323 1.852-4.233 17.93-5.292 0.9922-11.77 5.226-1.918z"/><path d="m4.152 278.2 0.3307 8.334 1.191 8.136-5.821 13.3-1.389-0.463-4.63-3.704 2.315-1.852-2.514-2.447 0.463-4.498-1.984-4.564 2.051-4.299 8.202-1.191 0.5292-5.755z"/><path id="spain" d="m-140.3 254.8 5.048 2.946-1.871 2.917 8.444 3.001 8.332 6.724 9.18 1.702 1.324-2.871 8.82 5.441-1.169 3.695 2.76 1.076 2.222-1.524 5.858 1.833 4.365 1.995 5.937-1.027 2.444 1.6 1.532 1.824-4.022 8.77-11.23 4.116-3.648 3.555-15.9 1.31-1.123 6.174-8.045 5.426-11.88 12.44 1.403 10.48 5.613 4.022-11.32 5.893-7.484 9.822-13.94 4.677-6.548 8.606-5.613-2.9-26.66-4.022-11.6 2.713-5.238 5.8-8.887-5.613-2.152-13.38-5.706-7.203-6.361-1.216 0.4677-6.501 5.145-5.893 4.35-0.2806 1.45-3.789-4.209-4.958 7.343-8.7-3.789-6.361-1.637-5.8 8.138 1.777 1.216-8.98 5.192-13.75 10.64-7.674-3.529-8.744-21.09-2.993 1.263-5.847-10.06 1.871 4.911-11.69-5.332-8.419 15.81-2.993 4.677-4.958 8.793 6.08 35.83 12.63 9.542-0.1871 5.519 3.087 2.993-0.9354z"/><path d="m-96.79 329.5 9.448 7.951 8.138-7.858-5.8-4.303z"/><path d="m-114.3 339.8 4.584 2.152 3.929-5.238z"/><path d="m-76.59 326.7 10.29 4.303-2.339-7.203z"/><path id="andorra" d="m-100.8 274.1-1.346 4.196 2.714 1.056 2.237-1.51 1.024-1.258z"/><path id="portugal" d="m-236.4 257.4 9.914-2.245-1.343 5.887 21.16 2.979 3.533 8.691-10.66 7.658-5.345 13.83-1.045 8.868-8.385-1.923 1.864 6.032 3.768 6.341-7.576 8.736 4.5 4.914-1.448 3.771-4.453 0.215-5.194 5.993-0.3902 6.531-7.811 1.166-7.296-5.005-6.735 0.608 6.174-14.92 3.742-9.401-6.969-1.123 0.2806-3.929 5.379-0.6548-0.9822-3.227-5.098 3.508-2.806-2.526 4.771-10.34 9.261-7.343 8.359-17.58-0.5953-7.078 1.521-4.762z"/><path id="UK" d="m-79.99 125.2-5.556 3.903-8.268 1.455-5.689-2.977-6.681 1.455-5.887-5.358 1.058 2.315-8.07 0.1984 0.926 2.844-10.65-5.424-7.011 0.3969-2.58 6.548-6.085-5.49-6.019 0.7938-8.136 5.821-4.498-5.424 5.953-0.9922 10.72-6.747 0.8599-3.969 4.498-2.447 12.5 2.977 9.922-7.871-12.3 4.233-5.424-5.887-6.615-3.836-5.556 1.588-2.051-6.945 13.76-2.844 3.969-10.78h-8.07l6.879-5.159-2.712-1.124 0.926-4.829 4.762 5.292 7.474 0.1984 5.358 1.389-2.977-4.63 6.945-11.24-4.564 1.588-3.836-8.401 8.004-6.548-4.498-1.124-0.926 2.447-8.467-2.646 0.463 4.63-7.607-8.401 7.805-8.07-0.9922-7.739-3.969 0.5292-4.63 8.467-3.241-0.1984 6.879-13.56 9.327-12.63-8.533 5.755-4.762-5.49 7.408-5.424-0.3307-8.268 3.043-5.755 5.159 1.72-0.3307-6.35 2.646 0.6615 2.447-5.755 5.556 3.175 12.9 0.926-3.241 5.556-10.98 5.093 3.572 1.257-6.548 5.622 9.79-2.315 13.03 3.307 1.918 4.564-5.358 5.755-8.533 9.525-6.218-0.2646 7.276 3.638-8.533 2.249-5.027-2.514 1.918 3.175 6.879 2.183 2.977-1.588 7.474 10.52 1.984 17.66 9.723 10.98 1.323 9.393-9.062-4.167 0.1323 1.521 6.945 3.969 2.58 7.144-5.556 4.366 4.035 2.183 3.109-3.307 11.84 5.622-2.977 11.77-6.019 5.424-5.622-0.5953 3.307 3.506-7.474 0.3969 2.447 2.447 9.657 0.7938z"/><path d="m-139.6-2.481 1.31 2.666 6.267 4.63 0.8887-1.964-2.526-1.497 1.497-4.958-1.964-2.432-1.169 0.9354 0.0468 3.181z"/><path d="m-140.9 19.64 4.724-0.8887 1.731 0.608 1.224-2.587-3.733-4.39-2.948 1.496 2.943 2.381z"/><path d="m-135.2 22.88-5.589 7.508-3.373 0.9922 1.422-3.572-3.01 1.025s1.389-3.44 1.621-3.44 8.401-2.977 8.401-2.977z"/><path d="m-129.2-19.82-0.3142 3.919-2.793 2.475-0.7484 3.368-3.087-0.04678-3.443 2.423-1.488-2.348 3.142-0.9591-1.753-1.819 1.455-4.134 2.778 1.819-0.1654-2.084z"/><path d="m-141.7-8.128-3.621 0.08268-1.025 1.422 4.746 2.232z"/><path d="m-145.4 2.314 1.871-4.303-1.45-1.123 2.058-0.1403-1.193-1.59-1.356 0.2105 0.4666 1.522-1.87 2.827 0.0156 2.258z"/><path d="m-102.7-19.62 1.968 3.555 0.8268-1.554-1.24-2.133 5.049 1.698-4.116-5.917-0.9701 4.161z"/><path d="m-79.77-31.67 4.49-9.354-1.169-1.45 5.075-5.613-1.637-0.1637-3.502 5.73-0.5671-3.204-3.555 2.502 2.526 2.689-4.139-0.04677 2.339 3.672z"/><path d="m-135.3 60.85 4.862-5.755 1.455 3.605-5.589 2.91z"/><path d="m-115.1 127.5 4.046 3.274 2.9-2.76-2.783-1.356z"/><path d="m-127 152.4 3.605 1.29-1.72-2.58z"/><path d="m-131 147.5 3.076-1.058-2.017-0.0992z"/><path d="m-155.4 36.93-4.531 4.895-4.134-0.4299 2.051 1.885-5.391 1.455 1.819 4.167 4.068 4.167 3.01-3.175 2.216-1.191 2.778 5.986-0.8268 1.554 5.953 1.753 4.564-1.687 3.704-5.556-0.43-2.381-4.299 0.7938 3.572-2.745-2.051-4.729 0.5622-3.87-4.233-1.753-5.093-0.3307-1.753 2.48z"/><path id="ireland" d="m-155.4 36.89-4.546 4.915-4.296-0.4693 2.19 1.936-5.417 1.471 1.862 4.26 4.097 4.095 3.028-3.186 2.193-1.174 2.761 5.962-0.8488 1.582 5.977 1.791-3.849 0.7559 1.124 7.541-1.852 3.903 0.7276 6.879-7.474 9.128 0.6656 3.616-6.735-2.9-8.325 0.09353-7.671 3.087-12.16 1.777-5.706-1.216 4.303-3.648h-7.296l7.203-2.993-8.606-0.7483 1.871-3.274 6.08-0.8419-7.951-2.152 4.303-2.339 4.303 2.806-0.3742-4.303 12.82 0.09356-1.216-1.964-2.619 1.672-8.466-1.251 7.764-4.163 1.871-4.163 5.659-0.421-7.437-2.245-5.017-4.356 4.316-5.209 3.297 0.8185 0.5145-2.175-3.695-0.5847-2.97-3.648 4.022-4.397 8.207 2.429 0.1323 2.514 6.482 0.2646 3.936-2.745-4.773-4.193 5.434-2.356 2.48-4.564 6.879-0.3969-0.6615 5.259 1.786-0.2977-0.0661-4.564 1.72-1.488 4.233 3.704-0.9273 0.8395z"/><path d="m-122.2-84.64 3.307 4.167 3.836 0.463 2.844-6.085-2.712 1.72-2.051-3.109z"/><path d="m-118.6-77.6 2.572 2.339-0.1403-3.181-3.087-0.608z"/><path d="m-120.4-73.9 1.637 4.256 0.4911-3.414z"/><path id="sweden" d="m94.9-184.3 2.538 1.375-0.6816 1.145 16.22 8.414 5.202 5.612-0.5871 8.771 6.066 10.9-1.469 7.217 6.259 10.21-10.7-0.3113-4.677 7.671-4.771 14.17 5.566 5.005-5.051 5.893-1.31 7.016-8.793 5.238-7.858 9.822-4.397 9.635-2.9-0.5613 2.432 5.332-4.022 10.85 3.368 14.31 11.69 10.01 5.706 5.051-8.513 9.354 4.303 4.209-5.8 6.829-1.871-6.455-4.022 8.606-5.332 0.9354 2.339 13.1-2.713 22.92-4.116 10.38-11.69-1.777-5.519 6.548 3.555 5.238-13.28 4.022-4.747-13.58-2.549-4.753 5.519-4.443-5.893-6.876-2.73-8.902-3.307-4.895 1.588-9.194-6.482-2.844-1.191-9.657 0.5471-2.65 3.181 3.789 2.058-0.5145 1.66-7.788-2.088-4.545 3.969-5.358 4.63-9.26-3.307-10.52 4.498 0.2646 0.8599-7.21-5.821-4.762 0.926-12.83-2.315-15.81 7.408-13.36 8.731 0.8599 0.7276-8.334-4.101-2.117 6.152-12.83-0.1323-13.03 7.011-3.969 5.49-15.94-2.183-5.755 7.011-10.98 4.167 1.786 0.7938-10.12 12.63 2.844 1.323-3.44-2.117-9.062z"/><path id="norway" d="m30.73-6.309 3.289 4.677 2.01-0.524 1.657-7.764-2.147-4.561 4.045-5.354 4.618-9.248-3.321-10.56 4.531 0.2915 0.8526-7.186-5.863-4.751 0.9575-12.84-2.387-15.82 7.481-13.4 8.738 0.8711 0.7053-8.281-4.138-2.145 6.191-12.83-0.1547-13.05 7.048-3.965 5.493-15.91-2.225-5.768 7.079-11.01 4.163 1.818 0.7782-10.16 12.61 2.847 1.326-3.397-2.133-9.094 2.98-0.8826 2.687 1.447 0.7731-0.9591-1.412-3.906 3.999-1.595 6.254 9.254 5.118 0.8186 3.752-3.859 7.157 3.662 1.955-1.601-0.4424-3.142 3.74-4.02-2.073-11.99 9.758-9.647 9.439 5.191 2.094 3.447-0.0789 7.904 0.1257 0.9267 1.754-1.292-0.3274-5.238 4.303-3.04-0.9354-3.508 4.256 2.105-0.5613-5.753-5.566-0.4677-10.29-2.339 10.29-0.1871 3.789-6.267-8.092-4.958-7.624-1.824-1.637 10.66-2.479-1.918 1.824-5.051-2.9 2.853 3.04-7.484-6.08-1.169-2.245 4.21 2.292 0.608-1.169 7.343-2.432 2.526-1.543-5.192 1.123-1.543-0.5145-4.537-4.443 10.15-1.029 7.998-2.058-0.6548 2.058-11.6-0.8419-2.947 3.648-3.789-5.051-1.684-1.076 6.735-4.677-2.9 0.2806 8.7-3.648-2.713 1.31 13.94-2.058 0.2806-1.964-4.022-11.04 1.123 5.613 3.087 0.7484 5.332-4.49-5.332-4.116 5.753 2.198 6.08-2.619-3.368-1.544 5.051 0.5613-11.55-2.152 0.4677-1.169 10.48-0.6548-8.045-3.742 1.871-0.7951 3.601 4.069 5.519-5.064-6.066 0.04961-1.637 1.588-1.604-0.2315-1.191 0.7938 0.4961 3.77-1.819 0.1935-2.422-4.934-1.356-2.339 2.947 2.175 2.011-4.514 1.216-1.473 3.835 2.058 0.725 2.843-1.171-1.744 1.288-4.602 7.909-0.7938 5.027-4.696 2.844-3.307-5.226-1.455 5.358-0.3969-5.887-2.778 2.051-1.455 7.21-5.689 1.852-0.5953 4.63 6.945-4.564 2.58 1.191 3.307-4.696-0.1323 3.373 8.996-3.307-2.514 2.58-6.884 1.569 2.572 8.138-3.274-7.063-5.145 3.134 4.958 1.263-0.3742 1.684-7.016 0.9822-0.2339 3.929 7.016-2.479-4.537 2.993 3.134 3.087-4.537-2.432-4.303 5.332 9.588 1.123-10.8 0.9354-5.659 8.793-1.62 6.12 7.408 0.3307-9.459 3.241-2.91 9.062 2.646 2.712-4.829 3.638 7.871-0.9922-8.334 3.043-4.895 4.035 3.175 1.852-3.109 1.852 1.918 1.852-1.918 2.977-2.712-3.175-4.564 4.299-3.638 7.673-3.241 2.249 0.2646 2.183 1.521 1.058 1.323 2.514 8.334-4.829 3.307-0.7938-6.747 3.175 1.654 2.977-5.953-0.463-1.389 1.984 0.0776-2.037-2.409-3.333-3.485 2.362-0.4209 3.274-0.8419-2.853-5.098 1.637-2.385 9.588-16 2.713-10.66 11.04 13.1 2.152-13.66-0.6548 0.6548 5.426-2.058 6.08 21.23 1.497-21.98-0.09355 5.987 7.951-6.922 4.209 6.361 7.109 10.01-6.829-11.79 9.635-7.537 12.76 12.57-7.673-4.366 10.58-4.762-0.6615 0.1323 7.673 10.45 6.747-2.381 3.572 15.35 0.2646 15.21-16.14 5.424 0.6615 4.895-19.45 0.6615 2.514-0.2646 13.76z"/><path d="m74.3-193.1-3.835 5.8 2.011 5.472 4.397-3.648 1.731-5.051z"/><path d="m45.3-159.4 9.167-8.232-2.713-1.964z"/><path id="iceland" d="m-222.1-159.4 10.32 4.101 8.334 12.04 11.11 5.159 25-4.101 4.101 1.852 12.3-7.408 4.233-10.32-8.07-23.02-13.89 5.821-3.043-6.35-2.514 9.128-0.6615-11.64-8.202 5.689-0.6615-7.938-7.541 8.731-7.673 0.6615 7.011-12.57-7.011-14.02-1.852 10.58-3.969-7.408-14.95 8.334 17.46 8.07-7.011 1.852 4.101 4.63-16.4-5.821-0.7938 4.498 10.98 5.292-0.3969 10.32-8.731-2.249z"/><path id="ukraine" transform="translate(-259.6 -227.3)" d="m511.3 319.7-2.485 0.1695-8.294 8.407 2.096 8.814-19.8-0.3441-12.18 4.346-16.9-3.115-19.47 2.945-4.282 6.356-3.182-1.143-0.1499 5.495 6.807 6.332 0.7038 9.457-3.456 0.1771-9.793 17.03 3.744 9.011-4.166-0.062-2.749 11.23 5.725 4.549 11.16-0.3896 16.97 2.54 9.842-4.978 8.633-6.735 3.795-4.112 8.86-1.931 14.23 4.705 3.828 0.2542 2.899 9.268 4.471 0.9694 0.8072 5.988 5.187 1.783 3.677 6.99-5.476 1.59-8.007 0.8857 1.553 5.79-1.598 7.516-5.424 5.615 7.086 2.603 7.805-5.699 4.415 2.674-3.615-9.988 2.437 3.391 7.185-10.64 0.8455-7.969 5.999-3.003 6.596-1.853-0.7133-8.15 1.251 5.987 3.894 1.614 4.97-2.456-2.42 3.917-8.127 1.146 2.07 3.555 6.887 2.07 6.124-2.102 4.185-2.928 3.51 2.599 1.081-2.963 2.702 4.536-5.707 3.688-5.662 5.946-0.8386 4.685 4.68-2.745 9.79 2.1 1.588 7.078-2.166 2.629 5.804 2.249 3.803-0.6118 4.548-8.698 5.986-2.844 1.951-2.646 2.216-4.713 3.473 1.687 7.904-3.704-1.753-3.621 2.299-2.084-0.7441-1.753-10.1 2.166-0.7194 3.663-4.651 1.821-4.316-1.277 1.596-0.7284-1.202-2.237-5.195-2.478-3.616-0.2305-3.816-1.997-3.787 0.6201-3.613-1.91 4.085-0.3638 3.638-1.778 5.945-1.05 2.803-4.779 0.0413-2.497 1.53 0.9343-1.199 7.441 0.2398 0.0164 4.622-10.48 12.17-8.326 3.84-4.487 1.203 0.968 1.517-4.485 7.923-3.114-2.271-7.203 1.846-2.83 2.34-5.952 3.481-0.4548 5.48-2.234 1.135-8.598-5.544-4.018-0.3345-9.093-1.415-9.311-2.715 1.607-7.255-0.9694-7.787-1.596-6.412 3.534-9.593-6.092-7.359 6.243-11.21 1.441-7.048-10.87-11.19-0.7118-2.315-8.372-9.717-8.571-9.77 3.531-4.2 6.557z"/><path transform="translate(-259.6 -227.3)" d="m316.2 463.9 4.89 0.8547 1.115-1.46 1.126 0.3338 4.164 0.0899 2.008-3.639 3.083 3.92 6.986-0.3834-1.728-4.623 5.292-1.395 0.154-4.354-1.678-1.091 5.593-4.829 3.125 0.1499-1.059-2.214 1.23-0.9674 3.474 1.287 6.897 4.754 6.545 5.434 9.421 1.311 3.002-3.454 2.194-0.2129 0.371-0.1561 1.181 6.126 2.344 0.6222-1.424 3.008 6.078 2.218-4.468 1.673 1.027 3.92-3.698 1.346-2.625-3.871-6.003 0.7876-1.907-1.647-1.753 2.445-11.87-3.7-1.26 1.718-3.73-0.5819-2.245 4.262-4.089-3.814-2.907 0.1002-0.0496 8.506 3.817 2.131 2.532 7.031 12.54 12.06 1.967 0.153-0.2294 2.633 2.121 2.622 2.428 1.173 1.26 2.231-1.608 0.7369-0.2584-0.0661-2.941-2.736-2.664-1.262-3.452-3.765-1.819 0.0238-4.428-2.172-2.682 1.358-3.119-0.0486 0.2108-3.738-4.262-2.087-6.636-5.425-0.6018-2.233 2.07 0.0906-0.1549-0.8624-1.824 0.0614-2.997-2.804-0.0479-1.077-2.291-2.622 0.3266-0.1871 7.527 6.736 3.891 2.437-0.1447-1.183-4.382-2.442-5.154-5.881 0.2987-4.337-4.368-5.623-3.613-1.161-3.702 8.375-1.218 1.844-3.569-5.153z"/><path id="liechtenstein" transform="translate(-259.6 -227.3)" d="m266.8 432.1 1.979 0.3172 0.1725 2.489 2.116 0.7133-4.192-0.6279z"/><path d="m82.02 46.04-0.9713-7.407 5.525-13.96 1.639 0.6071z" stroke-width=".2646"/><path d="m102.5 13.34-7.04 9.187 2.49 11.16 7.04-11.42-1.717-3.864 5.409-6.096z" stroke-width=".2646"/><path transform="translate(-259.6,-227.3)" d="m387.4 270.8 1.807 0.1754 0.6694-2.546 7.177-4.504 3.542-0.0155 6.255 0.6646 6.092-1.793 8.086 0.6873 0.6457-1.715 3.135-2.506 1.89 4.218 6.283-0.1127 7.45 6.053 5.219 0.2251 1.01-2.421 1.545-0.9932 4.747 0.216 0.1435-2.935 3.991-5.854-1.289-4.243-3.754-6.026-2.844 0.5292 0.7938-6.482-0.5953-2.58-3.307-1.124-2.051-1.918-7.77 1.535-6.054-4.531-7.568-2.689-4.534 2.532-3.943 3.052 0.3976 2.362 2.362 8.372-3.317 4.845-3.704 1.191-3.44-1.852-1.786-3.903-6.218-4.299-0.1984-2.844-5.424 4.299-2.249 0.463-2.447 6.482 1.058 3.836-3.704 3.638 1.542 7.226-0.7484 0.3274z" stroke-width=".2646"/></g><path d="m615.3 352.3-43.78 8.793-17.03 26.19-50.51 16.84 14.22 18.71-13.66 21.89 15.53-14.59 4.864-23.39 19.46-4.864 6.548 11.79 20.77 9.916-1.871 16.65 10.85-7.671-6.361-11.79-12.72-11.6 22.08-9.542 20.58-16.46 4.49-16.09 11.6-7.484z" fill="#00f" stroke-width=".2646"/></svg>
