<?xml version="1.0" encoding="UTF-8"?>
<svg id="svg47" width="128mm" height="128mm" version="1.1" viewBox="0 0 128 128" xmlns="http://www.w3.org/2000/svg">
		<g id="g46" transform="matrix(.21 0 0 .2 53 46)" stroke-width=".26">
				<path id="denmark" transform="translate(3.8e-6)" d="m1.1 65 3.4 3.5 4.9 1.4 0.5 1.2 3.4-1.1 4.9 1.7 0.35-3.5-3.1-2.7-3.1 1.4 2.8-4-1.4-4.8 3.3-1.6-1.8-1.6 5.6-3.2v-4.8l5.2-0.75 2.6-3.7-6.1-2.4-0.89-7.3 2.9-4.9-0.7-5.5 1.8-3.7-6.4 2.8-4.6 6.5-8.7 0.94-4.8 5.2-1.2 13 1.9-0.4 0.6 3.4-2.4 1.9-1.3 4.6 5.6 1.6-0.05 7.5z" fill="#311"/>
				<path id="path1" transform="translate(3.8e-6)" d="m14 58 4.9 6.2 3.9 2.5 3.1-2.1-1.3-8.2-1.7 2.4-1.6-2.9z" fill="#311"/>
				<path id="path2" transform="translate(3.8e-6)" d="m41 47 4.5 2.1-4.7 11 3.4 2.5-4.7 2.3 1.1 3.2 4-0.17-6.2 4.8 0.13 3.4-3.3-2.2-6.6-2 0.099-3.6 5.8 2.7 2.7-2.6 2.2 1.7 1.1-2-3.2 0.24-2.5-1.7 1.4-2.5-5.2 0.42-2.8-8.4 4-1.3 1.7-3.9 2.7 0.13 0.56 5.3 0.26-5.6z" fill="#311"/>
				<path id="moldova" d="m214 168-3.6 4.1 5.1 1.5 7.8 10 10 9.6 1.7 6.4-0.65 4.5 2.2 7.7-0.28 3.9 2.3 1.5 5.4-5.6 1.6-7.5-1.6-5.8 8.1-0.89 5.4-1.6-3.6-7-5.2-1.8-0.82-6-4.4-0.97-2.9-9.3-3.8-0.25-14-4.7z" fill="#27213c"/>
				<path id="romania" d="m210 173 5.2 1.4 7.9 10 10 9.6 1.7 6.3-0.67 4.5 2.2 7.7-0.28 3.9 2.3 1.5 7.1 2.6 7.8-5.7 4.3 2.6-0.18 7.5-5.2 1.8-1.4-3.3-2.6 1.1 1.4 3.6-1.7 2.4 0.56 4.8-0.7 1.8 1.3 9-4.4 0.98-5.1-3.4-12-0.47-11 5.3-4.5 6.3-14 0.94-5.1 2-9.8-1.4-7.3 0.7 2.4-4.3-5.5-1.8-3.3-3.6 3.7-2.4-4.5-2.2-3 4.7-8.3-3.9-1.5-7.3-9.7-5-0.53-4.5-6.8-5.8 5.4-0.6 0.93-2.6 4 0.2 1.6-6.5 5.2-12 1.3-6.2 6.3-4.9 3.4-6.7 7-0.24 17 2.5 9.9-5z" fill="#27213c"/>
				<path id="poland" d="m150 71 7.4 3.5 0.51 3.5 6.6 13 1.9 7.8-6.8 4.8-0.5 5.2 6 2.2-0.79 7.8 2.5 3.6-0.018 1.5 6.8 6.4 0.63 9.2-3.4 0.25-9.8 17 3.7 8.9-4.1-0.05-6.6-2.2-2.7-2.9-8.8 0.2-1.3 2.8-3.1-2-5.9 2.2-0.73 2.8-3.5 0.033 0.033-3.6-4.5-3.3-2.3 4-2.9 0.17-2.4-4.9-3.1-4-8.4-0.79-1.5-5.9-9.9-1.4 1.1 4-3.5 2.2-5-5.9 2.6-2.8-13-3-1.3-3.4-3.5-0.66 0.89-4.8-5.1-9.5 0.93-7.3-0.99-6-5.6-4.1 3.2-8.3-1.7-4.6-0.99-6.8 19-6.5 4.3-5.5 4.1-1.1 10-4.9 5 0.2 2.2 6.9 6.7 0.79 1.6 1.5 3.5-3.5 16-0.066 8-0.93z" fill="#264222"/>
				<path id="bulgaria" d="m174 251 5.5 1.7-2.4 4.3 7.3-0.6 9.8 1.5 5.1-2.1 14-0.94 4.5-6.3 11-5.3 12 0.53 5.1 3.3 4.4-0.99 1 3.9-1.3 3.4-4.3 0.2-1.9 4 0.77 5.9 0.63 3-2.5 0.19-2.5 4.9 3.5 0.33 5.4 6.5-4.7 1.6-5.8-1.7-8 3.9-2.5 5.2-2.7-0.3-0.76 2.3 2.2 3-0.76 2.3-7.3 1.4-3.9 2.3-4.9-2.4-5.4-1.7-6.1 1.2-5.4 3.2-8.8 2.2-0.14-7.2-2.8-4.8-4.9-1.4-2.2-2.8 2.1-3.4-2.2-5.5 6.1-7.4-6.8-4.5-2.8-5.7 2.3-4.9z" fill="#264222"/>
				<path id="lithuania" d="m128 58 4.1 0.69 0.46-0.76 7.1 2.7 6-0.69 3.6 3.6-1.4 6 1.2 2.1 0.9-0.3 7.4 3.5 0.53 3.5 4.3-0.47 4.9 0.54 2.5-2.6 2 0.0062-0.15-3.2 2.7 0.0041 0.52-2.2 2.6-1.1 0.11 1.6 1.6 1.4 2.6-0.96-0.82-3.1-2.7-0.031 1.3-4.2-1.1-3.1 1.2-4.3 2 0.2 1.2-4.3 3.2 0.29 1.9-4-4.1 0.38 0.46-6.8-3.5-0.18-7.5-6-6.3 0.13-1.9-4.2-3 2.4-0.66 1.7-8.1-0.73-6.1 1.8-6.3-0.66-3.5 0.066-7.1 4.5-0.66 2.5h-1.4l0.5 5 0.79 1.9 0.17 2 0.066 3.3z" fill="#2a181e"/>d="m197.3 31.13 0.5846-2.058-2.292-3.882-3.235-3.524-2.611-2.018 0.4677-8.045-4.116-3.274-4.818 0.3274-4.537 1.263-5.987-4.49-7.671-2.713-4.537 2.526-3.789 2.853 0.9822 4.209 1.918 6.735-5.659 5.94-4.724-1.497-2.292-5.145-5.753-3.882-0.0935-2.339-8.092 4.911-2.292 5.519 0.8887 4.256-3.134 3.976 0.7016 11.23 1.058 1.659 1.327-0.01654 0.6987-2.466 7.182-4.499 3.535-0.07028 6.249 0.6232 6.097-1.751 8.121 0.7369 0.6366-1.707 3.09-2.507 1.882 4.207 6.253-0.1165 7.515 6.035 5.209 0.1612 1.037-2.361 1.514-1.038 4.811 0.2829 0.1627-2.873 3.469-5.186z"/&gt;
				<path id="belarus" d="m158 78 9.1 0.033 2.5-2.5 2.1-0.05-0.18-3.2 2.7-0.014 0.55-2.2 2.5-1.1 0.12 1.5 1.6 1.4 2.6-1-0.88-3.2-2.7 0.015 1.3-4.2-1.1-3.1 1.2-4.2 2 0.23 1.2-4.3 3.2 0.32 1.9-4.1-4.1 0.33 0.48-6.6 1.7 0.047 1-2.4 1.5-1 4.8 0.25 0.17-2.9 3.5-5.1h0.66l1.7 1.9 5.1 0.72 6.1-1.8 1.6 4.3 6.4-5 7.6 2.7 3.8 9.8-1.4 5.1 13 9.5 1.5 5 7.7-0.61 4.4 5.8-5.9 6.3-7.2-0.42 4.1 9.1 5.2 8.7-2.5 0.19-8.3 8.4 2.1 8.8-20-0.34-12 4.3-17-3.1-20 3-4.3 6.4-3.2-1.2-0.12 4-2.5-3.5 0.78-7.8-6-2.2 0.49-5.2 6.8-4.8-1.9-7.8z" fill="#264222"/>
				<path id="slovakia" d="m158 178-4.9 2.1-4-3.5-4.3 1.8-3.8-0.94-3.1 1.1-1.7 5.2-8.3 1.3-9.1 4.5 0.75 3.1-12 2.5-8.3-4.4-4-6.4 0.95-4.3 2.8-4.5 5 0.79 5.4-5 0.26-3.8 4.6-4.4 3.3-0.59 1.2 2.3 2.9-0.18 2.3-4 4.4 3.3 3e-3 3.6 3.7-3e-3 0.7-2.9 5.8-2.1 3.2 2 1.3-2.8 8.7-0.17 2.7 2.8 6.6 2.3z" fill="#264222"/>
				<path id="hungaria" d="m140 221-6.9-0.41-4.7 4.2-2.5-0.8-3.2 2.2-2.2 0.23-3 3.5-9.4-1.3-6.5-5.4-7.4-5.1-4-6.8h-1.5l4.5-4.2-1.3-5.5 2.5-2.2-3.2-2.5 4.4-0.14 3.7-0.51 0.017-5.5 8.3 4.3 12-2.6-0.78-3.1 9.1-4.5 8.3-1.3 1.7-5.2 3.1-1.1 3.8 0.94 4.2-1.8 4 3.5 5-2.1 5.8 4.5 4.1-0.14-3.4 6.8-6.3 4.9-1.5 6.2-5.1 12-1.5 6.4-4-0.23-0.96 2.7z" fill="#2a181e"/>
				<path id="czech" d="m63 138 3.4 0.19 0.94 3.4 2 0.39 1.3-3.5 3.5 0.69 1.2 3.4 13 2.9-2.6 2.8 5.1 5.9 3.5-2.3-1-3.9 9.8 1.4 1.5 5.9 8.4 0.78 3.1 4 1.2 2.6-3.3 0.6-4.6 4.4-0.27 3.8-5.4 5-5-0.76-2.8 4.4-0.55-1.9-5.3-1.2-4.6 1.6-8.8-4.2-3.7-0.3-0.13 4.6-3.4 3.1-7.9-0.63-2.5-2.7-3.1-3.5-8.5-6.2-6.8-13-1.6-4 2.4 2.4 5.5-4.6 7.5-3.5 4.5-1.7 6-3.6-2-1.3z" fill="#264222"/>
				<path id="austria" d="m73 174 3.7 0.28 8.8 4.2 4.6-1.5 5.3 1.2 0.57 1.9-0.93 4.3 3.9 6.4-0.052 5.6-3.7 0.53-4.5 0.14 3.3 2.5-2.5 2.1 1.4 5.6-5.2 4.6-1.7 0.58 1.1 3-2.3-1.4-3.7 1.5-8.5 1-0.43 2.1-2.9 1.8-5.9-1.6-4.9-0.36-14-2.4-2.5-2-2.7-4.1 1.5-2-6 2.1-6.9 0.25-2.2 3.6-4.1-2.2-2.3 0.43-0.44-2.6-3.3 2.5-3.9-1.9 0.54-1.3-3.1-0.12-2-0.33 0.53-3.3 2.3-2.7-0.091-1.4-1.1-1.2 2.7-0.81 3.3 2.2-0.094 1.8 1.8-0.51-0.35 2.2 3.6-3.3-0.23-2.4 5.1 1.2 1.2 2.6 4.6-1.7 7-2.2 3.3 0.17 0.3-2 3.6 1.5 2.6-0.93 2.5 4.1 1.9-3-2.4-2-0.066-4.3-1.9-2.3 6.4-3.6 1.6-4.5 3.2 1.2 1.1-4.7 2.3 2.4 7.9 0.62 3.4-3.1z" fill="#311"/>
				<path id="serbia" d="m133 221 6.9 0.35 6.8 5.8 0.52 4.5 9.8 5 1.5 7.4 8.4 3.9 3-4.7 4.5 2.1-3.8 2.4 3.3 3.6-0.65 2.6-2.4 4.9 2.8 5.7 6.8 4.4-6.2 7.4 2.3 5.5-2.2 3.5-1.1-1.2-7.6 3.6-3.7-0.066-0.86 3.7-2.9-2.3-4.2 3 0.56 2.8-1 1.4h-2.2l-0.16-5.1-5.2-3.3-2.1-3.3-1.1 0.65 1.1-6.8 1.1-1.5-7.4-5.5-6.5-3.1 1.6-1.3 1.8 1.3 0.53-3-4.6-5 4 0.86 1.2-2.4-4.3-3.5-2.6-0.61 2.5-10-3.6-0.33-0.97-3.7 4.5-1.7-6.1-2.2 1.4-3-2.3-0.63-1.1-5.9 2.8-2.1 2.5 0.74z" fill="#264222"/>
				<path id="macedonia" d="m173 284 1.6 1.8 1.9 2.1 4.8 1.5 2.8 4.8-0.058 7.2-2.2 0.25-0.49 3.6-7.7 1.3-6.7 5.4-8.4 1.2-3.2-0.45-4.2-7.2 0.17-5.1-0.32-4.2 2.2-0.05 1-1.4-0.57-2.8 4.1-3 2.9 2.3 0.85-3.7 3.7 0.1z" fill="#264222"/>
				<path id="montegro" d="m131 268 6.5 3.2 7.4 5.4-1.1 1.5-1.2 6.9-2.1 1.1-1.6-3.5-5 9.2 1.8 1.3-0.37 4.3-2.7-1.3-4.1-5.5-1.7 0.24-0.2-3.7-3.6 0.93 1.1-4-1.8-2.5-0.28-3.5 2.7-0.33-0.19-3.9 2.8-2.4 1.3 1.9 1.4-0.94-2.5-3.4z" fill="#264222"/>
				<path id="bosnia" d="m124 284-0.52 2.2-3.8-0.79-6.1-5.1-2.2 1-1.1-1.3 1.6-0.75-1.3-2.2-2.4-1.2-2.1-2.6 0.23-2.6-2-0.17-13-12-2.5-7-3.8-2.1 0.066-8.5 2.8-0.099 4.1 3.8 2.2-4.3 3.7 0.6 1.3-1.7 12 3.7 1.8-2.4 1.9 1.6 6-0.79 2.6 3.9 3.7-1.3 3.4 0.11-2.4 10 2.7 0.62 4.2 3.5-1.2 2.4-4-0.86 4.5 5-0.47 2.8-1.8-1.3-1.6 1.4-3.6 1 2.6 3.4-1.3 0.89-1.3-1.9-2.8 2.5 0.1 3.8-2.7 0.29 0.36 3.6z" fill="#264222"/>
				<path id="slovenia" d="m59 218 4.6 0.39 5.9 1.5 3-1.8 0.42-2.1 8.5-0.96 3.7-1.5 2.4 1.5-1.1-3.1 1.6-0.53 0.57-0.43h1.5l3.8 6.8-2.8-1.1-1.2 1 1.1 2.2-3.1-0.17-5.6 4.9 1.7 1.1-0.14 4.3-5.3 1.4 1.7 4.6-7 0.37-3.1-3.9-2 3.6-4.2-0.094-1.1-0.33-1.1 1.4-4.9-0.89 2.8-2 1.8 0.42-0.094-2.3-3.6-1.7 0.96-2.9-2-1 2-3.1-3.4-0.35-0.12-2.1z" fill="#264222"/>
				<path id="germany" d="m61 87 1.1 6.8 1.6 4.5-3.2 8.3 5.6 4.1 1 5.9-0.96 7.3 5.1 9.5-0.9 4.8-1.2 3.5-1.9-0.41-0.95-3.3-3.4-0.21-0.28 1.2 2 1.2-5.9 3.6-12 5.2-5.5 4.5-2.6-2.5 1.8 4.2 6.7 13 8.7 6.3 3.1 3.6-1.1 4.7-3.3-1.2-1.6 4.6-6.6 3.6 2.1 2.4 0.073 4.3 2.4 2-1.8 2.9-2.5-4.2-2.6 0.84-3.7-1.5-0.3 2.1-3.2-0.21-12 3.9-1.2-2.7-5.4-1.1 0.27 2.5-3.3 3.1 0.34-2.1-1.8 0.55 0.094-1.8-3.4-2.2-2.7 0.73-3.6-2.5-4.7-0.43-3.4-2.9-2.7 2.2 2.5 1.8-4.5-0.69-3.3 0.99-4.2-0.83-0.3-2.9s0.5-5.9 0.5-5.7c0 0.19 3.5-7.3 3.5-7.3l5.2-8-8.9-4.2-4.5 0.42-3.5-1.3-2.5-5.4-1.5-0.19 2.1-4.1 0.19-1.8-2.6-1.3-0.98-5 3.3-3.2-0.8-2.9-1.4-0.8 1.4-1.6-3.1-2.5 1.4-2.9-2.2-1.8 3.5-2.4 1.2-6.4-2.7-5.3 2.2-0.61 2.8 0.7 5.1-2-1.7-2.1 3.8-2 0.56-4-3.6-1.4 3.6-2.1 3-11-1.8-2.5 3.2-5.1 7.9-0.094 0.19 5.1 5.1-1.7 0.75-6.2 7.8 2.2-4.5-2.6 1.4-2.6-3.9-4 4.3-3.1-3.9-6.2 0.47-1 5.2 1.4 0.56 1.2 3.4-1 4.9 1.6v3.9l-2.3 1.2 3.3-0.37 5.9 3.6 2.4-1.6 1.6 0.89-0.47 3.3-3.6 0.98 1.8 2.7 2.8-1.3 3 1.6 2-4.2h4.9l2.6-2.1 6.6-2.3 1.4 2.2 1.1-1.3-1-1.4 1.1-4.1 2.6-0.28-1.8 2.5 1.7 1.2 0.047-2 2.3 0.28-1.2 2.1 2 2.4-0.89 1.5-1.3-2-3.3 2.2 2.6 2.2 3.4-1z" fill="#311"/>
				<path id="albania" d="m144 284 2.2 3.3 5.1 3.1 0.14 5.2 0.35 4.2-0.16 5.2 4.2 7.2 3.2 0.46 0.38-0.028-0.27 1.8 1.4 1.3-1.1 4.4-2.2 0.5-0.79 5.9-3.3 0.73-1.3 1.5 1.7 2.7-2.9 3.7-2.9-1.1 0.36-3.1-4.2-3.7-4.3-1.6-2.9-3.7 3 1.7 0.56-3.8-2.6-0.33 0.8-6.2h1.1l-1-1.8 0.33-4.5-1.8-1.9 2.2-4.1v-3.7l-3.5-0.65 0.31-4.2-1.8-1.2 5-9.1 1.6 3.5z" fill="#264222"/>
				<path id="netherland" d="m-17 91 4.5 4.7-2.9 11-3.6 2.2 3.7 1.4-0.53 3.9-3.8 2 1.7 2.1-5.1 2-2.8-0.81-2.4 0.75 2.8 5.3-1.2 6.3-3.5 2.4 2.2 1.9-1.4 2.8-3.4-0.41-0.39-1.9 1.6-1.2 1.3-3.9-3.9-2.8-3 0.47-1.5-4.1-5.7-0.23-4.3 2.1-3.4 1.1-5.1-0.89-0.28-2.5 9.5 1.2-3-2-5.1-0.75-0.19-1.8 4.8-0.19 2.8 3 1.6-0.047-3.5-3.1-2.6-1.5 0.26-0.89 5.4 2.7 1.3-0.3-2.8-1.4-0.6-1.8-1.6 0.13v-0.73l1.5-0.6 4.1 4.2 4.4-0.96-3.5 0.033-3.3-2.3-1.2-3.1 1.4 0.13 3.5-3.2 2.4-4.9 2.4-7.8 3.4 0.73 0.33 3.6 2.4-0.46-1.5 2.2-2.1-0.26 0.79 3.5-2.1 1.9 5.2 1.9 4.1-2.5-3.3 0.93-0.99 1.1-2.8-1.9 4.8-3.2 3.3 0.79v-1.3l-2.5-0.26 1.1-4.1-3.3-0.13 1.2-6 6.1-3.1 4.6 0.33z" fill="#311"/>
				<path id="luxembourg" d="m-31 150 1.9 0.49 1.1 5 2.6 1.2-0.19 1.8-2.2 4.1-1.7-0.88-2 1.1s-2.4-1.9-2.3-2c0.066-0.033 1.4-2.4 1.4-2.4l-2-2.9 1.6-3.3z" fill="#311"/>
				<path id="bolgaria" d="m-34 160-3.9 0.15-0.8-2.1-5.5-3.8 0.69-6.2-1.3 0.099-3.5 3.7-3.8-1.6 1-5.3-4.3-1.7-1.5 0.98 0.094-3.6-3.9-1.5-1.1-4.9-3.3 1.4-2.9-7.2 9.8-3.9 0.48 2.9 5.3 0.74 3.5-1.3 4-2 5.6 0.26 1.5 4.1 3-0.5 3.8 2.7-1.3 3.9-1.6 1.2 0.44 2 3.5 0.42 3.1 2.4-1.4 1.6 1.5 0.81 0.8 2.8-3.3 3.2-2-0.48-1.7 2.4-1.6 3.3 2 2.9s-1.3 2.2-1.3 2.2z" fill="#311"/>
				<path id="switzerland" d="m19 212-1.1 3.4 1.3 0.5-0.48 2.2-2.8-1.2 0.13-1.2-1.9 0.41-0.74 2.9 2 0.46-1.1 1.6 1.4 1.5-2.5 1.3-1.1-3.8-3.7 1.7-2.1-3.7-2.8 0.5 1.3 2.4-3.6 4.9 0.033 4.2-2.4-0.66-1.4-3.4 1.6-0.86-3.4-1.2-2.2-2.7 0.96-3.6-2.5 0.33-2.8 3.4 1.5 1.4-2.2 1.4-2.3 2.7-3.2-1.6-6.2 2-2.9-5.3 0.33-5.2-4.3-0.89-2.2 2.1-1.3 3.9-3.4-0.46-0.2-2.8 2.3-0.099-0.23-3.2 1.3-3.1 3.5-2 0.56-3.5 3.5-0.99 4.7-4.9-0.5-2.7 4.8 1.2 2-2.1 4.3 0.78 3.3-1 4.8 0.81-2.8-2 2.7-2.2 3.4 2.9 4.7 0.43 3.6 2.6-0.027 0.12 1.1 1.2 0.083 1.4-2.4 2.9 0.14 2.9 4.6 0.7-0.54 1.3 4 2 3.3-2.6z" fill="#311"/>
				<path id="estonia" transform="translate(-281 -282)" d="m411 274 3.3 0.19 1.4 3.4 2.2-0.56 2.3-3.1-1.7-2.8-1.8 0.4-1.3-1.2-1.1 2.4z" fill="#2a181e"/>
				<path id="path3" transform="translate(3.8e-6)" d="m155 8.1 3.8-2.8 4.5-2.5 7.7 2.7 6 4.4 4.5-1.2 3-0.28 2.8-6.2-4.8-5.8 0.73-3.4-3.1-7 4.3-11-1.7-1.3-9.5 2.2-8.9-1.1-5.2 3-8.5 1.9-5 4.6-2.7 1.5 2.8 4-2.3 0.99 4 2.8-2.6 0.13 0.99 3.6 3 3.6h4.5l0.86-2.9 2.1 1.6z" fill="#2a181e"/>
				<path id="path4" transform="translate(-281 -282)" d="m411 282 1.2-0.47 1.3 1.6 3.8-4.4 5.1 0.44 0.12-1.8 2.1 0.19 0.75 2-2.8-0.26 0.14 0.7 2.3 0.96-3.3 2.3-1.8 2.7-3.2 0.61-1.8 5.8-1.4-0.8 1.6-3.8-3.4-1.8 1.3-1.9z" fill="#2a181e"/>
				<path id="finland" d="m139-26 13-6.6 8.7-6.6 14-4.9 9.7-16 9.9-25 0.41-8.3-16-11 2.9-6.7-7.9-8.7 0.31-2.4-5.1-4 1.1-12-13-19 3.4-13-6.4-6.7-5.8-1.4-1.6-14 0.067-7.9-2-3.4-9.4-5.2-4.2 4.2-5.5 5.4 2 12-3.7 4 0.44 3.1-2 1.6-7.2-3.7-3.7 3.9-5.2-0.8-6.2-9.3-3.9 1.6 1.4 3.9-1.6 2 16 8.4 5.2 5.6-0.58 8.8 6.1 11-1.5 7.2 6.4 10 9.7 3.9 2.5 8.6-0.37 3-5.6 1-6.2 16-8.3 10 1.8 1.6-6.1 2.8-0.37 6.4-1.8 4.8 3.8 6.9-0.88 4.1 4.8 7.5-2.2 9 2.1 8.1 3.9-0.62 2.8 2.5 4.3 0.16-1.1 2.7 2 0.23 3-2.8-1.5 3.6z" fill="#2a181e"/>
				<path id="path6" d="m133-117 3.7-0.078 0.41-2.9-4.7 0.9z"/>
				<path id="grecee" d="m225 288-0.72 2.2 2.2 3-0.84 2.4-7.3 1.4-3.9 2.3-4.9-2.4-5.3-1.7-6.1 1.2-5.4 3.2-9 2.3-2.2 0.26-0.49 3.6-7.7 1.3-6.7 5.4-8 1.1-0.24 1.9 1.4 1.3-1.1 4.5-2.3 0.51-0.78 5.9-3.3 0.71-1.3 1.5 1.7 2.7-3 3.7 1.2 2.3 0.81 3 3.2 1.1 3.5 4 0.66-2.4 5.2 1.1 0.2 2.8-5.6-0.53-0.26 2.2 4.1 2 0.7 3 0.8-0.65 0.65 4 3.4-2-0.98-1.8 3.5 3.6 4.7-2.2 7.3-0.47v-1.6l2.7 2.5 0.89-2.2 2.5 2.6 5.7 0.42 0.37 1.2-3.6 0.84 0.37 2.4-15-5-2.8 1.4-0.75 2.2-4.2-0.8-1.4 5-1.6 1.1 3.6 3.8 4 1.9 2.2 3.5-1.7 2.7 2.4 5.9 3.5 1.7-0.37-5.2 2.7-1.4 3.6 5.7 0.89 4.2 2.3 0.56-0.047-6.4 2.9-0.65 3.1 4.6 4.3 1.2-3.4-4.5 0.94-1.8-4-5.4-3.5-7.6 1-0.51 5.1 1.9-1.4 2.3 2.7 0.19s0.89-1.9 1.2-1.9c0.28 0 3.5-1.8 3.5-1.8l-6.1-1.8-0.7-3.8-2.4-0.14 0.84-1.1 6.2-3.1 0.65 0.89-1.9 2.2 4.4-0.89 5.3 3.6 1.1-0.89-2.8-6.6 0.8-2.2-6.7-2.4v-0.7l5.8-0.047 2.9 4.4 4.9 2.3 0.89-4.1-4.8 0.23-2-4.6 0.7-1.1-2.2-2.3-4.6 0.19-5.8-3.8-1.7-1-3.9 2.9 1.4 1.3 4.1 1 4.3 2.8-0.84 1.3-3.3-0.51-0.21-2-12-2.5 6.3-2-0.46-3.5-2.5-1.4 2-2.4 3.4 2.2-0.26 2 2.5-1.5-3-4.9-4.3-2.2-3.6-6.1-2.8-2.8 1.2-4.1-1.5-1.9 4.2-3 1.5 1.3-2.6 1.2 1.6 2 6.2 2.1 1.4 4.4 5-0.13-5.8-4.5 0.26-1.3 4.6 1.6 3.8 3.6 1.1-2.1-5.8-3.6 3.2-2.1 6.6 4 1.1-2.6-8.7-2-3-4.6 2.3-2.1 3.3 1.3 3.6-4.8 4.9 0.79 4.4-3.5 12 1.5 0.66 1.4 3.4-5.3-1.6-4.5 3.9-2.4-1.7-4.3-3.2-1.4z" fill="#393a33"/>
				<path id="path7" d="m206 400 0.17 6.7h18l1.3 3.3 12-4 8.8-1.4 1-6.1-8.7 5.7 0.14-4.5-11 0.8-11 2.6-1.9-4.2-4.9 2-1.4-3.9-2 1.7 1.9 2.8z" fill="#393a33"/>
				<path id="path8" d="m269 374-6.4 6.5 3.4 5 3.7-4.5 0.75-7.3z" fill="#393a33"/>
				<path id="italy" d="m59 218-3.9 3.4 0.055 2.1 3.5 0.31-2 3.1 2 1-0.96 2.8-1.7 2.1-3-1.9-1.8 1.7-7.6 4.7 0.15-2.8-2.7 2-0.65 5.2 4.5 3.7-1.8 3.6-1.4-1.4-0.094 7 4.6 7.8 9.4 6.4 1.6 0.37 5 9.4 2.4 8.8 7 6.2 8 5.7 13-1.1 2.1 2.8-4.6 3.7 0.94 1.9 17 7.3 3.7 3.4 7.6 2.2 7.9 9-1.6 5.9-6-3.4-1.7-5.4-9.4-1.4-1.6-1.7-5.7 8-1.2 6.5 9.1 5.6 0.65 8-5.1 0.75-3.7 3 1.5 6-5.9 5-0.84 4.9-6.5-0.75-0.47-6.5 2.9-0.65 0.37-5.8 4.1-1.9-1.5-6.1-5-14-3.1-3.3-9.4-2.9 0.84-3.8-2.2-3.6-6.5 2.2-1.3-4.6-7.5-8.1-8.2 1.2-6.7-4.9-6.7-8.2-10-8.4-6.9-9.4-3.7-0.84 0.94-4.6-4.5-13-9.4-5.8-8-3.2-7.9 6.7-8.5 3.7-0.75-2 3.7-3.1-1-2.6-3.8 0.86-4.7-2.8-1.1-4.1 3.5-3.4-1.2-2.7-3.2-1.5 1.6-2.7 4.2-2.1 0.53-4.3-4.3-5.6 9.1-2.9 3.3 1.6 2.2-2.9 2.2-1.4-1.5-1.4 2.8-3.4 2.4-0.32-0.94 3.6 2.2 2.7 3.4 1.2-1.6 0.85 1.4 3.4 2.4 0.67-0.027-4.2 3.6-4.9-1.2-2.4 2.8-0.48 2.1 3.8 3.7-1.7 1.1 3.8 2.6-1.3-1.5-1.4 1.1-1.6-2-0.47 0.76-2.8 1.8-0.39-0.12 1.2 2.8 1.2 0.49-2.2-1.3-0.5 1.1-3.4 2.3-0.4 4.2 2.3 2.2-3.7 6.9-0.2 5.9-2.1-1.4 1.9 2.6 4.2 2.7 2z" fill="#27213c"/>
				<path id="path19" d="m0.25 310-9 6.8-5.9-3.2-0.4 7.9 4.3 4.8-1.7 5.9 2.1 2.4-3.4 7.6 0.53 8.1 7.7 1.1 2.4-6.2 6.7 2.6 3-17-2.2-2.5 3.9-5-4-8.3v-3.3z" fill="#27213c"/>
				<path id="path20" d="m88 363-0.054 1.1-5.5 8.6-1.4 5.7 3.7 7.1-3.5 4.4 1.5 2.1-2 0.7-8.1-2.9-3.9-5.5-5.1 0.47-9.7-6.5-7.5-1.9-3.6-4.2 4.2-6.3 2.8 2.8 3.2-3.6 5.4 1.7 3.4 2.3 12-1.9 1.7-2.2 5.1 1.1z" fill="#27213c"/>
				<path id="france" d="m-68 129 3 7.3 3.3-1.4 1.1 4.9 3.9 1.5-0.062 3.7 1.5-0.98 4.2 1.8-1 5.4 4 1.6 3.5-3.7 1.2-0.088-0.75 6.1 5.6 3.8 0.81 2.2 4.1-0.25-0.091 0.17 2.4 2 1.9-1.1 1.7 0.94 1.6 0.11 2.5 5.4 3.5 1.3 4.5-0.4 8.8 4.2-5.2 8-3.4 7.3-0.5 5.7 0.29 2.9-2 2.1-4.8-1.2 0.49 2.8-4.7 4.9-3.5 1-0.56 3.5-3.5 2-1.3 3.1 0.24 3.2-2.3 0.1 0.18 2.8 3.5 0.47 1.2-4 2.2-2 4.2 0.89-0.3 5.2 2.8 5.3-3 1.1 4.4 5.6-0.52 4.2-4.2 2.1-1.7 2.7 3.3 1.6 1.2 2.6-3.6 3.4 1.2 4.2 4.8 2.8 3.8-0.83 0.82 2.5-3.7 3.1 0.82 2.3-5.2 1.8-6.8 5.1-4.4 3.6-13-4.4 0.28-1.5-4.2-0.46 2.9-1.9-2.5-1.3-0.75 2.5-5.8 0.14 0.61-1.6-6.4-3.1-8.3 4.5-4.7 1.6-2.4 7.4 1.8 5.5-2.6-1.6-5.9 1-4.4-2-5.8-1.8-6.3 6.2-6.4-15-1.4 2.9-9.1-1.6-8.3-6.7-8.3-3 1.8-2.9-5-3.1 4.9-4 5.1-16 3.3-0.65-2.7-2.1 5-14 5.2 12-1.5-9.5-5-5.6-1.5-6.8 2.5 5.5 1.4-8.9-7.3-4.8-2.5-6.6 2.2-3.5-2.2-4.6-1.4-4.7-17-11-5.2 1.1-3.3-5.8 5.7-0.2 0.86-3.4-6-1.7 1.3-4 14 0.99 6-1.7 3.8 6.6 14 1.5 0.066-8.7-2.2-11 8.7 2.2-1.1 5.6 11 3.7 7.6-1.9-4.2-1.3 1.9-4.2 18-5.3 0.99-12 5.2-1.9z" fill="#27213c"/>
				<path id="path21" d="m4.2 278 0.33 8.3 1.2 8.1-5.8 13-1.4-0.46-4.6-3.7 2.3-1.9-2.5-2.4 0.46-4.5-2-4.6 2.1-4.3 8.2-1.2 0.53-5.8z" fill="#27213c"/>
				<path id="spain" d="m-140 255 5 2.9-1.9 2.9 8.4 3 8.3 6.7 9.2 1.7 1.3-2.9 8.8 5.4-1.2 3.7 2.8 1.1 2.2-1.5 5.9 1.8 4.4 2 5.9-1 2.4 1.6 1.5 1.8-4 8.8-11 4.1-3.6 3.6-16 1.3-1.1 6.2-8 5.4-12 12 1.4 10 5.6 4-11 5.9-7.5 9.8-14 4.7-6.5 8.6-5.6-2.9-27-4-12 2.7-5.2 5.8-8.9-5.6-2.2-13-5.7-7.2-6.4-1.2 0.47-6.5 5.1-5.9 4.4-0.28 1.4-3.8-4.2-5 7.3-8.7-3.8-6.4-1.6-5.8 8.1 1.8 1.2-9 5.2-14 11-7.7-3.5-8.7-21-3 1.3-5.8-10 1.9 4.9-12-5.3-8.4 16-3 4.7-5 8.8 6.1 36 13 9.5-0.19 5.5 3.1 3-0.94z" fill="#27213c"/>
				<path id="path22" d="m-97 330 9.4 8 8.1-7.9-5.8-4.3z" fill="#27213c"/>
				<path id="path23" d="m-114 340 4.6 2.2 3.9-5.2z" fill="#27213c"/>
				<path id="path24" d="m-77 327 10 4.3-2.3-7.2z" fill="#27213c"/>
				<path id="portugal" d="m-236 257 9.9-2.2-1.3 5.9 21 3 3.5 8.7-11 7.7-5.3 14-1 8.9-8.4-1.9 1.9 6 3.8 6.3-7.6 8.7 4.5 4.9-1.4 3.8-4.5 0.22-5.2 6-0.39 6.5-7.8 1.2-7.3-5-6.7 0.61 6.2-15 3.7-9.4-7-1.1 0.28-3.9 5.4-0.65-0.98-3.2-5.1 3.5-2.8-2.5 4.8-10 9.3-7.3 8.4-18-0.6-7.1 1.5-4.8z" fill="#27213c"/>
				<path id="UK" d="m-80 125-5.6 3.9-8.3 1.5-5.7-3-6.7 1.5-5.9-5.4 1.1 2.3-8.1 0.2 0.93 2.8-11-5.4-7 0.4-2.6 6.5-6.1-5.5-6 0.79-8.1 5.8-4.5-5.4 6-0.99 11-6.7 0.86-4 4.5-2.4 12 3 9.9-7.9-12 4.2-5.4-5.9-6.6-3.8-5.6 1.6-2.1-6.9 14-2.8 4-11h-8.1l6.9-5.2-2.7-1.1 0.93-4.8 4.8 5.3 7.5 0.2 5.4 1.4-3-4.6 6.9-11-4.6 1.6-3.8-8.4 8-6.5-4.5-1.1-0.93 2.4-8.5-2.6 0.46 4.6-7.6-8.4 7.8-8.1-0.99-7.7-4 0.53-4.6 8.5-3.2-0.2 6.9-14 9.3-13-8.5 5.8-4.8-5.5 7.4-5.4-0.33-8.3 3-5.8 5.2 1.7-0.33-6.4 2.6 0.66 2.4-5.8 5.6 3.2 13 0.93-3.2 5.6-11 5.1 3.6 1.3-6.5 5.6 9.8-2.3 13 3.3 1.9 4.6-14 15-6.2-0.26 7.3 3.6-8.5 2.2-5-2.5 1.9 3.2 6.9 2.2 3-1.6 7.5 11 2 18 9.7 11 1.3 9.4-9.1-4.2 0.13 1.5 6.9 4 2.6 7.1-5.6 4.4 4 2.2 3.1-3.3 12 5.6-3 12-6 5.4-5.6-0.6 3.3 3.5-7.5 0.4 2.4 2.4 9.7 0.79z" fill="#311"/>
				<path id="path25" d="m-140-2.5 1.3 2.7 6.3 4.6 0.89-2-2.5-1.5 1.5-5-2-2.4-1.2 0.94 0.047 3.2z" fill="#311"/>
				<path id="path26" d="m-141 20 4.7-0.89 1.7 0.61 1.2-2.6-3.7-4.4-2.9 1.5 2.9 2.4z" fill="#311"/>
				<path id="path27" d="m-135 23-5.6 7.5-3.4 0.99 1.4-3.6-3 1s1.4-3.4 1.6-3.4 8.4-3 8.4-3z" fill="#311"/>
				<path id="path28" d="m-129-20-0.31 3.9-2.8 2.5-0.75 3.4-3.1-0.047-3.4 2.4-1.5-2.3 3.1-0.96-1.8-1.8 1.5-4.1 2.8 1.8-0.17-2.1z" fill="#311"/>
				<path id="path29" d="m-142-8.1-3.6 0.083-1 1.4 4.7 2.2z" fill="#311"/>
				<path id="path30" d="m-145 2.3 1.9-4.3-1.4-1.1 2.1-0.14-1.2-1.6-1.4 0.21 0.47 1.5-1.9 2.8 0.016 2.3z" fill="#311"/>
				<path id="path31" d="m-103-20 2 3.6 0.83-1.6-1.2-2.1 5 1.7-4.1-5.9-0.97 4.2z" fill="#311"/>
				<path id="path32" d="m-80-32 4.5-9.4-1.2-1.4 5.1-5.6-1.6-0.16-3.5 5.7-0.57-3.2-3.6 2.5 2.5 2.7-4.1-0.047 2.3 3.7z" fill="#311"/>
				<path id="path33" d="m-135 61 4.9-5.8 1.5 3.6-5.6 2.9z" fill="#311"/>
				<path id="path34" d="m-115 128 4 3.3 2.9-2.8-2.8-1.4z" fill="#311"/>
				<path id="path35" d="m-127 152 3.6 1.3-1.7-2.6z" fill="#311"/>
				<path id="path36" d="m-131 148 3.1-1.1-2-0.099z" fill="#311"/>
				<path id="path37" d="m-155 37-4.5 4.9-4.1-0.43 2.1 1.9-5.4 1.5 1.8 4.2 4.1 4.2 3-3.2 2.2-1.2 2.8 6-0.83 1.6 6 1.8 4.6-1.7 3.7-5.6-0.43-2.4-4.3 0.79 3.6-2.7-2.1-4.7 0.56-3.9-4.2-1.8-5.1-0.33-1.8 2.5z" fill="#311"/>
				<path id="ireland" d="m-155 37-4.5 4.9-4.3-0.47 2.2 1.9-5.4 1.5 1.9 4.3 4.1 4.1 3-3.2 2.2-1.2 2.8 6-0.85 1.6 6 1.8-3.8 0.76 1.1 7.5-1.9 3.9 0.73 6.9-7.5 9.1 0.67 3.6-6.7-2.9-8.3 0.094-7.7 3.1-12 1.8-5.7-1.2 4.3-3.6h-7.3l7.2-3-8.6-0.75 1.9-3.3 6.1-0.84-8-2.2 4.3-2.3 4.3 2.8-0.37-4.3 13 0.094-1.2-2-2.6 1.7-8.5-1.3 7.8-4.2 1.9-4.2 5.7-0.42-7.4-2.2-5-4.4 4.3-5.2 3.3 0.82 0.51-2.2-3.7-0.58-3-3.6 4-4.4 8.2 2.4 0.13 2.5 6.5 0.26 3.9-2.7-4.8-4.2 5.4-2.4 2.5-4.6 6.9-0.4-0.66 5.3 1.8-0.3-0.066-4.6 1.7-1.5 4.2 3.7-0.93 0.84z" fill="#311"/>
				<path id="path38" d="m-122-85 3.3 4.2 3.8 0.46 2.8-6.1-2.7 1.7-2.1-3.1z" fill="#311"/>
				<path id="path39" d="m-119-78 2.6 2.3-0.14-3.2-3.1-0.61z" fill="#311"/>
				<path id="path40" d="m-120-74 1.6 4.3 0.49-3.4z" fill="#311"/>
				<path id="sweden" d="m95-184 2.5 1.4-0.68 1.1 16 8.4 5.2 5.6-0.59 8.8 6.1 11-1.5 7.2 6.3 10-11-0.31-4.7 7.7-4.8 14 5.6 5-5.1 5.9-1.3 7-8.8 5.2-7.9 9.8-4.4 9.6-2.9-0.56 2.4 5.3-4 11 3.4 14 12 10 5.7 5.1-8.5 9.4 4.3 4.2-5.8 6.8-1.9-6.5-4 8.6-5.3 0.94 2.3 13-2.7 23-4.1 10-12-1.8-5.5 6.5 3.6 5.2-13 4-4.7-14-2.5-4.8 5.5-4.4-5.9-6.9-2.7-8.9-3.3-4.9 1.6-9.2-6.5-2.8-1.2-9.7 0.55-2.6 3.2 3.8 2.1-0.51 1.7-7.8-2.1-4.5 4-5.4 4.6-9.3-3.3-11 4.5 0.26 0.86-7.2-5.8-4.8 0.93-13-2.3-16 7.4-13 8.7 0.86 0.73-8.3-4.1-2.1 6.2-13-0.13-13 7-4 5.5-16-2.2-5.8 7-11 4.2 1.8 0.79-10 13 2.8 1.3-3.4-2.1-9.1z" fill="#311"/>
				<path id="norway" d="m31-6.3 3.3 4.7 2-0.52 1.7-7.8-2.1-4.6 4-5.4 4.6-9.2-3.3-11 4.5 0.29 0.85-7.2-5.9-4.8 0.96-13-2.4-16 7.5-13 8.7 0.87 0.71-8.3-4.1-2.1 6.2-13-0.15-13 7-4 5.5-16-2.2-5.8 7.1-11 4.2 1.8 0.78-10 13 2.8 1.3-3.4-2.1-9.1 3-0.88 2.7 1.4 0.77-0.96-1.4-3.9 4-1.6 6.3 9.3 5.1 0.82 3.8-3.9 7.2 3.7 2-1.6-0.44-3.1 3.7-4-2.1-12 9.8-9.6 9.4 5.2 2.1 3.4-0.079 7.9 0.13 0.93 1.8-1.3-0.33-5.2 4.3-3-0.94-3.5 4.3 2.1-0.56-5.8-5.6-0.47-10-2.3 10-0.19 3.8-6.3-8.1-5-7.6-1.8-1.6 11-2.5-1.9 1.8-5.1-2.9 2.9 3-7.5-6.1-1.2-2.2 4.2 2.3 0.61-1.2 7.3-2.4 2.5-1.5-5.2 1.1-1.5-0.51-4.5-4.4 10-1 8-2.1-0.65 2.1-12-0.84-2.9 3.6-3.8-5.1-1.7-1.1 6.7-4.7-2.9 0.28 8.7-3.6-2.7 1.3 14-2.1 0.28-2-4-11 1.1 5.6 3.1 0.75 5.3-4.5-5.3-4.1 5.8 2.2 6.1-2.6-3.4-1.5 5.1 0.56-12-2.2 0.47-1.2 10-0.65-8-3.7 1.9-0.8 3.6 4.1 5.5-5.1-6.1 0.05-1.6 1.6-1.6-0.23-1.2 0.79 0.5 3.8-1.8 0.19-2.4-4.9-1.4-2.3 2.9 2.2 2-4.5 1.2-1.5 3.8 2.1 0.72 2.8-1.2-1.7 1.3-4.6 7.9-0.79 5-4.7 2.8-3.3-5.2-1.5 5.4-0.4-5.9-2.8 2.1-1.5 7.2-5.7 1.9-0.6 4.6 6.9-4.6 2.6 1.2 3.3-4.7-0.13 3.4 9-3.3-2.5 2.6-6.9 1.6 2.6 8.1-3.3-7.1-5.1 3.1 5 1.3-0.37 1.7-7 0.98-0.23 3.9 7-2.5-4.5 3 3.1 3.1-4.5-2.4-4.3 5.3 9.6 1.1-11 0.94-5.7 8.8-1.6 6.1 7.4 0.33-9.5 3.2-2.9 9.1 2.6 2.7-4.8 3.6 7.9-0.99-8.3 3-4.9 4 3.2 1.9-3.1 1.9 1.9 1.9-1.9 3-2.7-3.2-4.6 4.3-3.6 7.7-3.2 2.2 0.26 2.2 1.5 1.1 1.3 2.5 8.3-4.8 3.3-0.79-6.7 3.2 1.7 3-6-0.46-1.4 2 0.078-2-2.4-3.3-3.5 2.4-0.42 3.3-0.84-2.9-5.1 1.6-2.4 9.6-16 2.7-11 11 13 2.2-14-0.65 0.65 5.4-2.1 6.1 21 1.5-22-0.094 6 8-6.9 4.2 6.4 7.1 10-6.8-12 9.6-7.5 13 13-7.7-4.4 11-4.8-0.66 0.13 7.7 10 6.7-2.4 3.6 15 0.26 15-16 5.4 0.66 4.9-19 0.66 2.5-0.26 14z" fill="#311"/>
				<path id="path41" d="m74-193-3.8 5.8 2 5.5 4.4-3.6 1.7-5.1z"/>
				<path id="path42" d="m45-159 9.2-8.2-2.7-2z"/>
				<path id="iceland" d="m-222-159 10 4.1 8.3 12 11 5.2 25-4.1 4.1 1.9 12-7.4 4.2-10-8.1-23-14 5.8-3-6.4-2.5 9.1-0.66-12-8.2 5.7-0.66-7.9-7.5 8.7-7.7 0.66 7-13-7-14-1.9 11-4-7.4-15 8.3 17 8.1-7 1.9 4.1 4.6-16-5.8-0.79 4.5 11 5.3-0.4 10-8.7-2.2z" fill="#311"/>
				<path id="ukraine" transform="translate(-260 -227)" d="m511 320-2.5 0.17-8.3 8.4 2.1 8.8-20-0.34-12 4.3-17-3.1-19 2.9-4.3 6.4-3.2-1.1-0.15 5.5 6.8 6.3 0.7 9.5-3.5 0.18-9.8 17 3.7 9-4.2-0.062-2.7 11 5.7 4.5 11-0.39 17 2.5 9.8-5 8.6-6.7 3.8-4.1 8.9-1.9 14 4.7 3.8 0.25 2.9 9.3 4.5 0.97 0.81 6 5.2 1.8 3.7 7-5.5 1.6-8 0.89 1.6 5.8-1.6 7.5-5.4 5.6 7.1 2.6 7.8-5.7 4.4 2.7-3.6-10 2.4 3.4 7.2-11 0.85-8 6-3 6.6-1.9-0.71-8.2 1.3 6 3.9 1.6 5-2.5-2.4 3.9-8.1 1.1 2.1 3.6 6.9 2.1 6.1-2.1 4.2-2.9 3.5 2.6 1.1-3 2.7 4.5-5.7 3.7-5.7 5.9-0.84 4.7 4.7-2.7 9.8 2.1 1.6 7.1-2.2 2.6 5.8 2.2 3.8-0.61 4.5-8.7 6-2.8 2-2.6 2.2-4.7 3.5 1.7 7.9-3.7-1.8-3.6 2.3-2.1-0.74-1.8-10 2.2-0.72 3.7-4.7 1.8-4.3-1.3 1.6-0.73-1.2-2.2-5.2-2.5-3.6-0.23-3.8-2-3.8 0.62-3.6-1.9 4.1-0.36 3.6-1.8 5.9-1 2.8-4.8 0.041-2.5 1.5 0.93-1.2 7.4 0.24 0.016 4.6-10 12-8.3 3.8-4.5 1.2 0.97 1.5-4.5 7.9-3.1-2.3-7.2 1.8-2.8 2.3-6 3.5-0.45 5.5-2.2 1.1-8.6-5.5-4-0.33-9.1-1.4-9.3-2.7 1.6-7.3-0.97-7.8-1.6-6.4 3.5-9.6-6.1-7.4 6.2-11 1.4-7-11-11-0.71-2.3-8.4-9.7-8.6-9.8 3.5-4.2 6.6z" fill="#264222"/>
				<path id="path43" transform="translate(-260 -227)" d="m316 464 4.9 0.85 1.1-1.5 1.1 0.33 4.2 0.09 2-3.6 3.1 3.9 7-0.38-1.7-4.6 5.3-1.4 0.15-4.4-1.7-1.1 5.6-4.8 3.1 0.15-1.1-2.2 1.2-0.97 3.5 1.3 6.9 4.8 6.5 5.4 9.4 1.3 3-3.5 2.2-0.21 0.37-0.16 1.2 6.1 2.3 0.62-1.4 3 6.1 2.2-4.5 1.7 1 3.9-3.7 1.3-2.6-3.9-6 0.79-1.9-1.6-1.8 2.4-12-3.7-1.3 1.7-3.7-0.58-2.2 4.3-4.1-3.8-2.9 0.1-0.05 8.5 3.8 2.1 2.5 7 13 12 2 0.15-0.23 2.6 2.1 2.6 2.4 1.2 1.3 2.2-1.6 0.74-0.26-0.066-2.9-2.7-2.7-1.3-3.5-3.8-1.8 0.024-4.4-2.2-2.7 1.4-3.1-0.049 0.21-3.7-4.3-2.1-6.6-5.4-0.6-2.2 2.1 0.091-0.15-0.86-1.8 0.061-3-2.8-0.048-1.1-2.3-2.6 0.33-0.19 7.5 6.7 3.9 2.4-0.14-1.2-4.4-2.4-5.2-5.9 0.3-4.3-4.4-5.6-3.6-1.2-3.7 8.4-1.2 1.8-3.6-5.2z" fill="#264222"/>
				<path id="path44" d="m82 46-0.97-7.4 5.5-14 1.6 0.61z" fill="#311" stroke-width=".26"/>
				<path id="path45" d="m102 13-7 9.2 2.5 11 7-11-1.7-3.9 5.4-6.1z" fill="#311" stroke-width=".26"/>
				<path id="path46" transform="translate(-260 -227)" d="m387 271 1.8 0.18 0.67-2.5 7.2-4.5 3.5-0.016 6.3 0.66 6.1-1.8 8.1 0.69 0.65-1.7 3.1-2.5 1.9 4.2 6.3-0.11 7.4 6.1 5.2 0.23 1-2.4 1.5-0.99 4.7 0.22 0.14-2.9 4-5.9-1.3-4.2-3.8-6-2.8 0.53 0.79-6.5-0.6-2.6-3.3-1.1-2.1-1.9-7.8 1.5-6.1-4.5-7.6-2.7-4.5 2.5-3.9 3.1 0.4 2.4 2.4 8.4-3.3 4.8-3.7 1.2-3.4-1.9-1.8-3.9-6.2-4.3-0.2-2.8-5.4 4.3-2.2 0.46-2.4 6.5 1.1 3.8-3.7 3.6 1.5 7.2-0.75 0.33z" fill="#2a181e" stroke-width=".26"/>
		</g>
</svg>
