<?xml version="1.0" encoding="UTF-8"?>
<!-- Created with Inkscape (http://www.inkscape.org/) -->
<svg width="99.48mm" height="56.928mm" version="1.1" viewBox="0 0 99.48 56.928" xml:space="preserve" xmlns="http://www.w3.org/2000/svg"><g transform="translate(-3.0004 -127.38)"><path d="m95.213 184.3-0.66009-5.2707-6.2008-1.7552-0.93466-7.8757-5.3182-1.2093-13.532-4.2291-11.001 2.9632-9.4798 9.9559-10.761 5.9808-3.7117-3.0019-17.305-0.41725-3.4229 3.3521-3.4439-3.2234-6.1608-3.7505-0.28004-4.2806 3.1664-8.7735 3.4936 0.0849-2.2206-1.1032 0.35128-2.4998-2.4517-4.3176 10.593-17.525 2.9904-0.35005 0.32004-7.321 15.322-2.3603 15.682 6.4009 18.883-3.8405 9.9213 8.6412 17.602 8.9612 5.8276 6.2624-3.6273 21.021z" stroke-width=".26458"/></g></svg>
