<?xml version="1.0" encoding="UTF-8"?>
<!-- Created with Inkscape (http://www.inkscape.org/) -->
<svg width="123.48mm" height="98.582mm" version="1.1" viewBox="0 0 123.48 98.582" xml:space="preserve" xmlns="http://www.w3.org/2000/svg"><g transform="translate(-84.213 -119.38)"><path d="m149.78 141.78 13.697-8.8287 25.348-6.5334 12.482-7.0409 6.1011 5.5441 0.28288 9.2219-15.106 9.9008 2.8854 8.7127-6.9023 3.2814-7.6944 9.2219-16.252 12.045-4.1206 5.6808-12.882 2.0003 0.60008 1.2002 10.261 0.34005 6.1208 3.0604 2.7804 4.6006 5.04 1.0092 6.5658-5.6774 6.7963-1.821 0.94746 1.8035-1.9323 2.6514 1.5376 3.0256-6.7225 4.3888-4.4855-1.5007-2.9142 6.2939-6.5247 3.3676-3.2507 6.2324-5.18 3.3442-6.3259-2.4438 2.0814-1.7306-1.6838-7.5069-9.3544-2.1398-4.3586 1.7627-1.3447-1.8972 6.4691-7.4384 5.5397-5.2048-1.8709-2.9174-0.63849 2.0264-4.258-1.1407-9.5941 3.7476-8.2319-2.3035 9.0657-7.8192-7.7093 2.0254-13.155 4.6831-3.8587 12.968-7.0935 5.6744 2.0133 2.0133 1.4542 4.7263-0.71417 1.8335-1.3146-3.1822-3.7207-0.79375-6.1178 4.9177-5.6244 0.79513-2.7011-3.3208 3.9406-2.2684 3.6132-8.3839 0.3391-3.6365-2.4123-4.0277 2.3316-2.2324 6.4327 0.9095 6.0689-1.3229-3.3953-6.4168-5.81-2.4146 3.7418-9.9157 3.4626-20.808 21.299-12.171 20.373 0.39687z" stroke-width=".26458"/></g></svg>
