<?xml version="1.0" encoding="UTF-8"?>
<!-- Created with Inkscape (http://www.inkscape.org/) -->
<svg width="204.83mm" height="138.98mm" version="1.1" viewBox="0 0 204.83 138.98" xmlns="http://www.w3.org/2000/svg">
 <g transform="translate(-387.35 -525.99)">
  <g transform="translate(535.17 105.63)">
   <g transform="translate(-24.462 235.74)">
    <g transform="translate(39.875 -83.459)">
     <g transform="translate(-18.044 92.985)">
      <g transform="translate(-9.1228 25.812)">
       <g transform="translate(95.563 127)">
        <g transform="translate(-193.85 -75.087)">
         <g transform="translate(107.33 33.258)">
          <g transform="translate(149.52 99.988)">
           <g transform="translate(3.0289 161.85)">
            <g transform="translate(-83.884 -112.27)">
             <g transform="translate(-64.04 128.68)">
              <g transform="translate(-6.2365 -30.632)">
               <g transform="translate(188.06 114.29)">
                <g transform="translate(-61.317 -37.807)">
                 <g transform="translate(-317.28 -6.2643)">
                  <g transform="translate(85.477 -28.96)">
                   <g transform="translate(-37.158 -72.185)">
                    <path d="m7.521-115.38 0.64009 6.2408 6.7209 7.361-0.32004 7.201-2.8804 0.32004-10.561 17.602 2.4003 4.3206-0.32004 2.5603 2.0803 0.96013-3.3605-0.16002-3.2004 8.9612 0.32004 4.3206 6.2408 3.7605 3.4405 3.2004 3.4405-3.3605 17.282 0.40006 3.6805 3.1204 10.881-6.0808 9.6013-9.9213 10.801-3.0404 13.522 4.2406 5.2807 1.2002 0.96013 7.9211 6.1608 1.7602 0.56008 6.0008 6.0808 2.1603 3.3605 6.4009-6.0008 1.2802-6.4809-0.88012-2.4003 2.2403 2.4003 4.0806-0.32004 3.6005-3.6005 8.3211-3.9205 2.3203 2.7204 3.3605 5.6808-0.80011 6.0808-4.8807 3.6805 0.80011 1.3602 3.1204 0.7201-1.8402-1.4402-4.7206-2.0003-2.0003 7.121-5.6808 3.8405-12.962 14.002-4.9607 6.8009-1.7602-4.6406 3.6805-4.4806 4.1606 8.3211 2.3203 9.6013-3.7605 4.2406 1.1202 0.64009-2.0003 1.8402 2.8804-5.5208 5.2007-6.4809 7.441 1.3602 1.9203 4.3206-1.7602 9.3613 2.2403 1.6802 7.361-2.1603 1.7602 6.4809 2.4803 5.2007-3.3605 3.2804-6.2408 6.4809-3.3605 2.8804-6.2408 4.4806 1.4402 6.7209-4.4006-1.5202-3.0404 1.9203-2.6404-0.96013-1.8402-6.8009 1.8402-6.5609 5.6808-5.0407-1.0401-2.8004-4.5606-6.0808-3.0404-10.321-0.40006-0.64009-1.1202 13.042-2.0003 4.2406-5.7608 16.162-12.082 7.761-9.0412 6.7209-3.5205-2.6404-8.5612 14.882-9.7613-0.32004-9.2812-5.6808-4.6406 0.96013-13.682-3.7605-3.8405-22.003-0.56007-10.961-3.1204-19.283 6.8809-10.241-12.402-8.0811 1.5202-10.401-16.162-16.082 5.1207-0.08001 4.4006-13.522 3.4405-2.8004 9.9213 2.5603 5.6008-4.8006-2.8804-12.002 0.40005-22.323 3.3605-21.363-0.88012-8.4811 3.0404-3.9205 6.2408z" stroke-width=".26458"/>
                   </g>
                  </g>
                 </g>
                </g>
               </g>
              </g>
             </g>
            </g>
           </g>
          </g>
         </g>
        </g>
       </g>
      </g>
     </g>
    </g>
   </g>
  </g>
 </g>
</svg>
